<svg xmlns="http://www.w3.org/2000/svg" viewBox="0 0 243.49 394.67"><defs><style>.cls-1,.cls-3{font-size:32.52px;}.cls-1,.cls-3,.cls-9{fill:#998d7c;}.cls-1,.cls-2,.cls-3{font-family:CormorantUpright-Regular, Cormorant Upright;}.cls-1{letter-spacing:0.15em;}.cls-2{opacity:0.4;font-size:71.26px;}.cls-2,.cls-4{fill:#df9d85;}.cls-3{letter-spacing:0.15em;}.cls-5{fill:#dfd4ca;}.cls-6{fill:#999467;}.cls-7{fill:#fff;}.cls-8{fill:#cc8671;}.cls-10{fill:#d2a962;}.cls-11{fill:#ccc3ba;}</style></defs><title>Asset 1</title><g id="Layer_2" data-name="Layer 2"><g id="Layer_1-2" data-name="Layer 1"><text class="cls-1" transform="translate(76.23 235.01)">DIRA</text><text class="cls-2" transform="translate(91.39 201.87)">&amp;</text><text class="cls-3" transform="translate(44.59 148.35)">DEK ADI</text><path class="cls-4" d="M121.92,355.49A109.82,109.82,0,0,1,12.12,246a.71.71,0,0,1,.71-.71h0a.71.71,0,0,1,.71.71A108.51,108.51,0,0,0,121.93,354.07h.31A108.52,108.52,0,0,0,230.32,245.36a.71.71,0,0,1,.71-.71h0a.71.71,0,0,1,.71.71A109.93,109.93,0,0,1,122.25,355.49Z"/><path class="cls-5" d="M199.18,246a76.94,76.94,0,0,1-153.87.44"/><path class="cls-6" d="M177.44,352.55c-.82-.06-20.2-1.61-23.92-2.55l-1.07-.27,9-5.12c.42-1.27,3.24-9.82,3.79-14.3l.89.1c-.61,4.92-3.76,14.25-3.9,14.65l-.05.16-7.26,4.15c5.52.93,22.46,2.28,22.64,2.3Z"/><path class="cls-6" d="M183.64,336.46a54.58,54.58,0,0,1-8.35-.58l-.95-.16L181,330.2c1.79-3.84,1.84-26.21,1.84-26.43h.89c0,.94-.06,23.13-2,26.91l-.11.14-5.23,4.33a60.07,60.07,0,0,0,19.85-.95l.2.86A56.83,56.83,0,0,1,183.64,336.46Z"/><path class="cls-6" d="M191.88,319.72l6.36-7.36c0-1,.28-7.28-1.44-19.4l.88-.12c1.88,13.32,1.44,19.67,1.44,19.73l0,.15-.09.11L194,318.68c3.48-.53,13.71-2.5,17.92-3.33l.18.87c-.73.15-17.64,3.46-19.18,3.48Z"/><path class="cls-6" d="M206.61,301.06l1.15-1.86c1.29-2.07,3.42-5.5,4.4-7.23a91.74,91.74,0,0,0-2.69-12.58l.85-.25A93,93,0,0,1,213.06,292l0,.15-.07.13c-.92,1.64-3,5-4.35,7.16a130.6,130.6,0,0,0,12.91-6.1c2.15-1.11,4.19-2.16,5.94-3l.52-.25.1.57c.16.84.31,1.69.45,2.54l-.87.15c-.11-.65-.23-1.31-.35-2-1.61.78-3.45,1.73-5.38,2.73-4.81,2.47-10.26,5.28-14.21,6.57Z"/><path class="cls-6" d="M146.14,353.76l-.36-.81a146.29,146.29,0,0,0,78.4-88.59l.13-.42,2.53.8-.27.85-1.68-.54A147.23,147.23,0,0,1,146.14,353.76Z"/><path class="cls-7" d="M171.67,357.84c-8.46-.72-12.59-7.57-12.61-7.52s8.49-4.52,16.6-4.25a20.57,20.57,0,0,1,13.48,6C189.23,352.13,180.21,358.59,171.67,357.84Z"/><path class="cls-6" d="M173.06,358.35a13.56,13.56,0,0,1-1.43-.07h0a17.77,17.77,0,0,1-12.85-7.58l-1.82-.59,2-.22.2-.1c5.9-2.84,11.75-4.29,16.53-4.17a21.15,21.15,0,0,1,13.82,6.22l.13.18-.07.22C189.48,352.74,181.13,358.35,173.06,358.35Zm-13.33-7.85a16.82,16.82,0,0,0,12,6.9h0c7.45.65,15-4.18,16.76-5.36a20.3,20.3,0,0,0-12.82-5.53C171,346.34,165.43,347.77,159.73,350.5Z"/><path class="cls-7" d="M159.06,350.32c5.48,1.49,29,1.71,30.08,1.78"/><path class="cls-6" d="M159.06,350.32a75,75,0,0,0,7.5.6l7.52.31c5,.26,10,.39,15.06.87-2.51.1-5,.18-7.55.17s-5-.08-7.54-.15C169,351.8,163.94,351.68,159.06,350.32Z"/><path class="cls-6" d="M181.4,348.91a17.55,17.55,0,0,1-5.28,3.22l.1-.7a15.41,15.41,0,0,1,3.09,4.11c-1.27-1.15-2.41-2.4-3.65-3.47l-.48-.42.57-.28C177.62,350.43,179.5,349.76,181.4,348.91Z"/><path class="cls-6" d="M184.82,349.58a9.25,9.25,0,0,1-3.12,2.67v-.7a8.24,8.24,0,0,1,2.29,2.56c-1-.59-1.87-1.28-2.77-1.86l-.53-.35.53-.36A28.33,28.33,0,0,1,184.82,349.58Z"/><path class="cls-6" d="M171.46,348.11a40.17,40.17,0,0,1-6.05,3.47l.13-.69a36.11,36.11,0,0,1,3.38,4.44,38.17,38.17,0,0,1-4-3.84l-.39-.43.53-.27A40.11,40.11,0,0,1,171.46,348.11Z"/><path class="cls-6" d="M177.6,347.67a59.84,59.84,0,0,1-7.47,4.38l.12-.7a57,57,0,0,1,4.42,5.18,57.33,57.33,0,0,1-5-4.56l-.42-.41.54-.29A60.31,60.31,0,0,1,177.6,347.67Z"/><path class="cls-7" d="M194.87,342.88c-8.49-.12-13.09-6.67-13.11-6.61s8.16-5.12,16.27-5.42a20.6,20.6,0,0,1,13.87,5.08C212,336,203.44,343,194.87,342.88Z"/><path class="cls-6" d="M195.13,343.33h-.27a17.69,17.69,0,0,1-13.34-6.67l-1.73-.43,1.83-.39.19-.11c5.68-3.25,11.44-5.14,16.2-5.32a21.22,21.22,0,0,1,14.22,5.22l.14.17,0,.22C212.27,336.57,203.54,343.33,195.13,343.33Zm-12.69-6.94a16.8,16.8,0,0,0,12.43,6.05h.27c7.33,0,14.45-5.24,16.08-6.52A20.18,20.18,0,0,0,198,331.3C193.47,331.47,187.94,333.27,182.44,336.39Zm-.88.28a.46.46,0,0,0,.15,0h-.06Z"/><path class="cls-7" d="M181.76,336.27c5.58,1.09,29.06-.34,30.14-.34"/><path class="cls-6" d="M181.76,336.27a72.58,72.58,0,0,0,7.52.06l7.53-.21c5-.09,10.05-.32,15.09-.19-2.51.27-5,.53-7.52.69s-5,.28-7.54.38C191.82,337,186.73,337.27,181.76,336.27Z"/><path class="cls-6" d="M204,333.29a17.5,17.5,0,0,1-5,3.58l0-.7a15.24,15.24,0,0,1,3.38,3.88c-1.35-1.06-2.57-2.23-3.89-3.21l-.51-.38.56-.32C200.29,335.07,202.11,334.27,204,333.29Z"/><path class="cls-6" d="M207.41,333.72a9.15,9.15,0,0,1-2.93,2.88l0-.7a8.4,8.4,0,0,1,2.47,2.39c-1-.51-2-1.14-2.9-1.66l-.55-.3.51-.4A25.8,25.8,0,0,1,207.41,333.72Z"/><path class="cls-6" d="M194,333.19a39.35,39.35,0,0,1-5.8,3.88l.09-.7a37.29,37.29,0,0,1,3.67,4.2,39.7,39.7,0,0,1-4.23-3.55l-.42-.4.51-.31A39.74,39.74,0,0,1,194,333.19Z"/><path class="cls-6" d="M200.07,332.32a60.44,60.44,0,0,1-7.14,4.89l.07-.7a56,56,0,0,1,4.77,4.85,57.92,57.92,0,0,1-5.31-4.19l-.44-.39.51-.32A59.59,59.59,0,0,1,200.07,332.32Z"/><path class="cls-7" d="M213.58,323.32a17.58,17.58,0,0,1-13.83-4.95c.07,0,7.46-6.08,15.48-7.38a20.6,20.6,0,0,1,14.39,3.33C229.7,314.33,222.11,322.41,213.58,323.32Z"/><path class="cls-6" d="M211.77,323.86a18,18,0,0,1-12.21-5.06l-1.76-.21,1.76-.62.18-.14c5.24-3.93,10.72-6.51,15.42-7.27A21.15,21.15,0,0,1,229.92,314l.16.16,0,.23c0,.53-8,8.48-16.43,9.38h0A17.08,17.08,0,0,1,211.77,323.86Zm-11.32-5.45a16.74,16.74,0,0,0,13.08,4.47h0c7.4-.79,13.95-7,15.41-8.49a20.26,20.26,0,0,0-13.64-3C210.79,312.16,205.52,314.64,200.45,318.41Zm-.85.39a.47.47,0,0,0,.16,0h-.16Z"/><path class="cls-7" d="M199.75,318.37c5.67.4,28.8-3.92,29.87-4.05"/><path class="cls-6" d="M199.75,318.37a75.1,75.1,0,0,0,7.48-.86l7.44-1.14c5-.71,9.93-1.56,15-2.05-2.45.58-4.91,1.14-7.38,1.61s-5,.9-7.43,1.31C209.83,317.89,204.81,318.76,199.75,318.37Z"/><path class="cls-6" d="M221.41,312.68a17.53,17.53,0,0,1-4.56,4.17l0-.7a15.19,15.19,0,0,1,3.83,3.44c-1.47-.89-2.82-1.9-4.25-2.71l-.55-.31.5-.39C218,314.9,219.7,313.88,221.41,312.68Z"/><path class="cls-6" d="M224.89,312.68a9.1,9.1,0,0,1-2.55,3.22l-.13-.69a8.25,8.25,0,0,1,2.75,2.07c-1.1-.38-2.09-.9-3.08-1.29l-.59-.24.46-.46A26.35,26.35,0,0,1,224.89,312.68Z"/><path class="cls-6" d="M211.5,313.81a41,41,0,0,1-5.27,4.57v-.71a38.77,38.77,0,0,1,4.16,3.71,38,38,0,0,1-4.64-3l-.47-.34.47-.37A40.36,40.36,0,0,1,211.5,313.81Z"/><path class="cls-6" d="M217.43,312.2a60,60,0,0,1-6.48,5.73l0-.71a58,58,0,0,1,5.34,4.23,56.67,56.67,0,0,1-5.79-3.5l-.49-.33.47-.38A59.78,59.78,0,0,1,217.43,312.2Z"/><path class="cls-7" d="M230.13,297.7a17.52,17.52,0,0,1-14.65-.92c.07,0,5.48-7.91,12.82-11.38a20.52,20.52,0,0,1,14.75-.79C243.13,284.59,238.07,294.46,230.13,297.7Z"/><path class="cls-6" d="M223.94,299.37a18.75,18.75,0,0,1-8.53-2.13l-1.81.3,1.58-1.09s.08-.1.13-.18c3.95-5.23,8.5-9.24,12.8-11.27a21.14,21.14,0,0,1,15.13-.79l.19.09.06.22c.16.53-5.32,10.38-13.19,13.59h0A16.64,16.64,0,0,1,223.94,299.37Zm-7.78-2.74a16.78,16.78,0,0,0,13.8.66h0c6.88-2.81,11.46-10.58,12.47-12.43a20.36,20.36,0,0,0-13.94.94C224.36,287.75,220,291.59,216.16,296.63Zm-.56.58h-.15A.41.41,0,0,0,215.6,297.21Z"/><path class="cls-7" d="M215.48,296.78c5.55-1.19,26.58-11.75,27.57-12.17"/><path class="cls-6" d="M215.48,296.78a72.58,72.58,0,0,0,6.94-2.9l6.83-3.16c4.59-2.06,9.11-4.25,13.8-6.11-2.2,1.23-4.4,2.45-6.64,3.59s-4.51,2.24-6.78,3.32C225,293.53,220.44,295.75,215.48,296.78Z"/><path class="cls-6" d="M234.7,285.31a17.21,17.21,0,0,1-3.22,5.27l-.24-.66a15.34,15.34,0,0,1,4.64,2.24c-1.66-.44-3.24-1-4.84-1.42l-.62-.15.38-.51C232,288.39,233.4,286.93,234.7,285.31Z"/><path class="cls-6" d="M238.05,284.34a9.15,9.15,0,0,1-1.56,3.8l-.31-.63a8.38,8.38,0,0,1,3.21,1.23c-1.16-.06-2.25-.28-3.32-.39l-.62-.06.31-.57A27.13,27.13,0,0,1,238.05,284.34Z"/><path class="cls-6" d="M225.49,289.14A39.59,39.59,0,0,1,221.7,295l-.2-.69a38.14,38.14,0,0,1,5,2.41,37.56,37.56,0,0,1-5.28-1.59l-.55-.21.35-.47A39.68,39.68,0,0,1,225.49,289.14Z"/><path class="cls-6" d="M230.75,286a60.66,60.66,0,0,1-4.63,7.3l-.22-.67a57,57,0,0,1,6.3,2.58,55.45,55.45,0,0,1-6.53-1.76l-.56-.19.34-.49A61.85,61.85,0,0,1,230.75,286Z"/><path class="cls-7" d="M231.53,263.41a17.54,17.54,0,0,1-10.46,10.31c0-.06-2.24-9.36.07-17.15a20.57,20.57,0,0,1,9.24-11.52C230.42,245,234.41,255.33,231.53,263.41Z"/><path class="cls-6" d="M220.38,275.71l.25-2c0-.05,0-.12,0-.22-1.27-6.42-1.22-12.48.13-17.05a21.12,21.12,0,0,1,9.51-11.81l.21-.08.19.12c.49.23,4.17,10.9,1.33,18.88h0a17.82,17.82,0,0,1-10.57,10.52Zm1.1-1.8,0,0,0,.08A.36.36,0,0,0,221.48,273.91Zm8.67-28.22a20.37,20.37,0,0,0-8.58,11c-1.3,4.38-1.36,10.2-.16,16.41a16.81,16.81,0,0,0,9.7-9.85h0C233.61,256.24,230.86,247.66,230.15,245.69Z"/><path class="cls-7" d="M221.07,273.72c2.82-4.94,9-27.65,9.31-28.67"/><path class="cls-6" d="M221.07,273.72a72,72,0,0,0,2.47-7.11l2.2-7.2c1.52-4.79,2.9-9.62,4.64-14.36-.54,2.46-1.1,4.92-1.74,7.35s-1.35,4.85-2,7.27C225,264.43,223.61,269.33,221.07,273.72Z"/><path class="cls-6" d="M225.34,251.74a17.39,17.39,0,0,1,1.78,5.92l-.65-.27a15.56,15.56,0,0,1,4.76-2c-1.44.95-2.93,1.73-4.29,2.66l-.51.36-.14-.62C225.86,255.78,225.68,253.79,225.34,251.74Z"/><path class="cls-6" d="M226.85,248.6a9.27,9.27,0,0,1,1.8,3.69l-.68-.18a8.22,8.22,0,0,1,3.05-1.57c-.81.82-1.71,1.48-2.5,2.21l-.46.42-.22-.61A27.63,27.63,0,0,1,226.85,248.6Z"/><path class="cls-6" d="M222.06,261.16a39.58,39.58,0,0,1,1.83,6.73l-.64-.31a37.07,37.07,0,0,1,5.15-2.14,38.59,38.59,0,0,1-4.71,2.88l-.52.27-.12-.58A39.68,39.68,0,0,1,222.06,261.16Z"/><path class="cls-6" d="M223.18,255.11a60.52,60.52,0,0,1,2.36,8.33l-.65-.29a55.85,55.85,0,0,1,6.13-3,57.29,57.29,0,0,1-5.67,3.7l-.51.29-.14-.58A60.75,60.75,0,0,1,223.18,255.11Z"/><path class="cls-7" d="M171.94,328.49c-1.29,7.65-9.12,13.22-9.12,13.15s-3.73-6.88-2.12-14.15,7.43-12.61,7.43-12.67S173.24,320.92,171.94,328.49Z"/><path class="cls-6" d="M162.78,342.08h0l-.17,0-.12-.13s-3.91-6.92-2.22-14.53c1.3-5.81,5.19-10.47,7.41-12.74l.07-.08,1-2.42-.14,2.54c1.51,2,4.88,7.45,3.79,13.87C171.1,336.1,163.37,342.08,162.78,342.08Zm5.31-26.56c-2.18,2.27-5.75,6.67-7,12.07-1.36,6.12,1.1,11.87,1.84,13.39,1.52-1.16,7.42-6.05,8.53-12.56h0C172.5,322.62,169.61,317.65,168.09,315.52Z"/><path class="cls-6" d="M164.26,322.05a14.1,14.1,0,0,1,2.89,4l-.71-.11a17.44,17.44,0,0,1,3.92-3.48,49.45,49.45,0,0,1-3.28,4.07l-.44.5-.27-.61C165.71,325,164.92,323.58,164.26,322.05Z"/><path class="cls-6" d="M165.61,318.67a8.29,8.29,0,0,1,2.13,2.75l-.71-.11a9.58,9.58,0,0,1,2.82-2.33,19.81,19.81,0,0,1-2.18,2.92l-.45.51-.27-.62C166.52,320.77,166,319.8,165.61,318.67Z"/><path class="cls-6" d="M162.13,330.92a17.94,17.94,0,0,1,2.9,4.83l-.7-.16a25.16,25.16,0,0,1,4.83-4,59.54,59.54,0,0,1-4.23,4.61l-.47.46-.23-.62C163.59,334.35,162.8,332.68,162.13,330.92Z"/><path class="cls-6" d="M162.56,325.56a26.61,26.61,0,0,1,3.55,5.88l-.71-.13a38.27,38.27,0,0,1,5.49-5.06,73,73,0,0,1-4.87,5.66l-.47.48-.24-.61C164.46,329.7,163.44,327.68,162.56,325.56Z"/><path class="cls-6" d="M163.24,341.8l-.83-.32a99.61,99.61,0,0,0,5.28-26.68l.89.05A101.13,101.13,0,0,1,163.24,341.8Z"/><path class="cls-7" d="M189,305.62c.28,7.75-6.24,14.8-6.25,14.72s-5.06-6-5-13.42,4.71-13.85,4.7-13.91S188.67,297.94,189,305.62Z"/><path class="cls-6" d="M182.57,320.8l-.15-.1c-.42-.33-5.22-6.46-5.12-13.78.09-5.94,2.95-11.3,4.66-14l0-.1.84-.06c1.89,1.68,6.31,6.29,6.54,12.81.28,7.62-6.12,15.13-6.65,15.19Zm0-27.1c-1.66,2.67-4.26,7.7-4.34,13.23-.09,6.25,3.49,11.39,4.52,12.74,1.26-1.44,6-7.43,5.79-14h0C188.29,299.75,184.46,295.48,182.53,293.7Z"/><path class="cls-6" d="M180.11,300.87a14.28,14.28,0,0,1,3.66,3.36l-.72,0a17.42,17.42,0,0,1,3.12-4.21,49.71,49.71,0,0,1-2.37,4.66l-.34.57-.39-.53C182.14,303.45,181.07,302.23,180.11,300.87Z"/><path class="cls-6" d="M180.75,297.29a8.34,8.34,0,0,1,2.65,2.26l-.73,0a9.51,9.51,0,0,1,2.29-2.86,19.1,19.1,0,0,1-1.54,3.3l-.34.59-.38-.55C182.06,299.16,181.34,298.32,180.75,297.29Z"/><path class="cls-6" d="M179.83,310a18,18,0,0,1,3.83,4.14h-.72a25.37,25.37,0,0,1,3.91-4.89,58.09,58.09,0,0,1-3.19,5.38l-.37.54-.35-.55C182,313.05,180.85,311.58,179.83,310Z"/><path class="cls-6" d="M179.16,304.66a25.93,25.93,0,0,1,4.67,5h-.72a39.49,39.49,0,0,1,4.35-6.06,71.7,71.7,0,0,1-3.62,6.53l-.35.56-.37-.54C181.87,308.32,180.46,306.56,179.16,304.66Z"/><path class="cls-6" d="M183.13,320.42l-.87-.15a99.75,99.75,0,0,0-.26-27.2l.88-.12A100.51,100.51,0,0,1,183.13,320.42Z"/><path class="cls-7" d="M202.6,287.59c1.5,7.61-3.84,15.59-3.86,15.52s-5.93-5.1-7-12.47,2.47-14.43,2.45-14.48S201.13,280.05,202.6,287.59Z"/><path class="cls-6" d="M198.69,303.59l-.16-.09c-.06,0-6.11-5.08-7.23-12.8-.85-5.87,1.14-11.62,2.4-14.52l.05-.11.81-.2c2.13,1.36,7.23,5.23,8.48,11.63h0c1.47,7.5-3.67,15.91-4.18,16Zm-4.3-26.77c-1.22,2.9-3,8.29-2.21,13.75.9,6.21,5.24,10.71,6.47,11.88,1-1.63,4.79-8.3,3.51-14.78h0C201,281.89,196.57,278.28,194.39,276.82Z"/><path class="cls-6" d="M193.13,284.28a14.38,14.38,0,0,1,4.14,2.75l-.71.15a17.81,17.81,0,0,1,2.43-4.65,48.22,48.22,0,0,1-1.62,5l-.24.62-.46-.47C195.53,286.51,194.29,285.48,193.13,284.28Z"/><path class="cls-6" d="M193.2,280.65a8.36,8.36,0,0,1,3,1.81l-.7.16a9.6,9.6,0,0,1,1.81-3.19,19.63,19.63,0,0,1-1,3.51l-.24.64-.47-.49C194.79,282.29,193.94,281.57,193.2,280.65Z"/><path class="cls-6" d="M194.29,293.34a18.17,18.17,0,0,1,4.43,3.48l-.71.11a24.67,24.67,0,0,1,3.09-5.44,58,58,0,0,1-2.31,5.81l-.28.59-.43-.49C196.87,296,195.54,294.75,194.29,293.34Z"/><path class="cls-6" d="M192.79,288.18a26,26,0,0,1,5.4,4.23l-.71.13a39.31,39.31,0,0,1,3.34-6.68,72.71,72.71,0,0,1-2.54,7l-.27.61-.44-.49C196,291.36,194.36,289.85,192.79,288.18Z"/><path class="cls-6" d="M199.18,303.11h-.88a99.77,99.77,0,0,0-4.53-26.82l.84-.26A100.28,100.28,0,0,1,199.18,303.11Z"/><path class="cls-7" d="M214.27,269.11c1.95,7.51-2.91,15.8-2.94,15.73s-6.22-4.75-7.72-12,1.61-14.55,1.59-14.6S212.35,261.67,214.27,269.11Z"/><path class="cls-6" d="M211.31,285.31l-.16-.07a22.47,22.47,0,0,1-8-12.35c-1.2-5.83.45-11.69,1.54-14.66l0-.1.8-.23c2.22,1.24,7.51,4.8,9.14,11.1h0c1.93,7.42-2.73,16.09-3.23,16.26Zm-5.87-26.46c-.89,2.51-2.54,8.28-1.4,13.86,1.26,6.13,5.87,10.37,7.17,11.46.91-1.68,4.29-8.57,2.63-14.95h0C212.37,263.53,207.7,260.17,205.44,258.85Z"/><path class="cls-6" d="M204.62,266.37a14.38,14.38,0,0,1,4.3,2.5l-.7.19a17.38,17.38,0,0,1,2.15-4.78,51.5,51.5,0,0,1-1.32,5.06l-.2.64-.5-.45C207.15,268.46,205.85,267.5,204.62,266.37Z"/><path class="cls-6" d="M204.47,262.74a8.08,8.08,0,0,1,3.07,1.64l-.69.19a9.58,9.58,0,0,1,1.62-3.28,20.17,20.17,0,0,1-.79,3.56l-.21.65L207,265C206.16,264.29,205.28,263.62,204.47,262.74Z"/><path class="cls-6" d="M206.31,275.34a18.23,18.23,0,0,1,4.63,3.22l-.7.14a25,25,0,0,1,2.77-5.61,61.66,61.66,0,0,1-2,5.94l-.25.61-.46-.46C209.05,277.87,207.64,276.68,206.31,275.34Z"/><path class="cls-6" d="M204.51,270.28a26.32,26.32,0,0,1,5.64,3.91l-.7.17a39.08,39.08,0,0,1,3-6.87,73.8,73.8,0,0,1-2.13,7.17l-.23.62-.48-.45C207.94,273.27,206.18,271.85,204.51,270.28Z"/><path class="cls-6" d="M210.89,284.86a99.67,99.67,0,0,0-6.1-26.51l.83-.31a100.71,100.71,0,0,1,6.16,26.77Z"/><path class="cls-6" d="M66,352.55l-.07-.88c.18,0,17.13-1.37,22.64-2.3l-7.26-4.15,0-.16c-.14-.4-3.29-9.73-3.89-14.65l.88-.1c.55,4.48,3.37,13,3.79,14.3l9,5.12L90,350C86.24,350.94,66.86,352.49,66,352.55Z"/><path class="cls-6" d="M59.84,336.46A56.83,56.83,0,0,1,47,335.06l.2-.86a60.07,60.07,0,0,0,19.85.95l-5.34-4.47c-1.92-3.78-2-26-2-26.91h.88c0,.22.07,22.59,1.85,26.43l6.67,5.52-1,.16A54.74,54.74,0,0,1,59.84,336.46Z"/><path class="cls-6" d="M51.6,319.72l-1,0c-1.54,0-18.45-3.33-19.17-3.48l.17-.87c4.22.83,14.44,2.8,17.92,3.33l-5.15-6v-.15c0-.06-.45-6.41,1.43-19.73l.88.12c-1.72,12.12-1.49,18.4-1.44,19.4Z"/><path class="cls-6" d="M36.87,301.06l-1.16-.37c-3.95-1.29-9.4-4.1-14.2-6.57-1.94-1-3.78-1.95-5.39-2.73-.12.65-.24,1.31-.35,2l-.87-.15c.14-.85.29-1.7.45-2.54l.1-.57.52.25c1.75.83,3.79,1.88,5.94,3a130.6,130.6,0,0,0,12.91,6.1c-1.34-2.15-3.43-5.52-4.34-7.16l-.08-.13,0-.15a93,93,0,0,1,2.74-12.85l.85.25A91.74,91.74,0,0,0,31.32,292c1,1.73,3.11,5.16,4.4,7.23Z"/><path class="cls-6" d="M97.34,353.76a147.23,147.23,0,0,1-78.75-88.71l-1.68.54-.27-.85,2.53-.8.13.42A146.29,146.29,0,0,0,97.7,353Z"/><path class="cls-7" d="M71.81,357.84c8.46-.72,12.59-7.57,12.61-7.52s-8.49-4.52-16.6-4.25a20.57,20.57,0,0,0-13.48,6C54.25,352.13,63.27,358.59,71.81,357.84Z"/><path class="cls-6" d="M70.42,358.35c-8.07,0-16.42-5.61-16.52-6.17l0-.18.11-.16a21.15,21.15,0,0,1,13.82-6.22c4.8-.13,10.64,1.33,16.53,4.17l.2.1,2,.22-1.82.59a17.77,17.77,0,0,1-12.85,7.58h0A13.69,13.69,0,0,1,70.42,358.35ZM55,352c1.73,1.18,9.35,6,16.76,5.36h0a16.82,16.82,0,0,0,12-6.9c-5.71-2.73-11.39-4.14-15.92-4A20.3,20.3,0,0,0,55,352Z"/><path class="cls-7" d="M84.42,350.32c-5.48,1.49-29,1.71-30.08,1.78"/><path class="cls-6" d="M84.42,350.32c-4.88,1.36-10,1.48-15,1.8-2.51.07-5,.15-7.54.15s-5-.07-7.55-.17c5-.48,10-.61,15.06-.87l7.52-.31A75,75,0,0,0,84.42,350.32Z"/><path class="cls-6" d="M62.08,348.91c1.9.85,3.78,1.52,5.65,2.46l.57.28-.48.42c-1.24,1.07-2.38,2.32-3.65,3.47a15.41,15.41,0,0,1,3.09-4.11l.1.7A17.55,17.55,0,0,1,62.08,348.91Z"/><path class="cls-6" d="M58.66,349.58a27.66,27.66,0,0,1,3.59,2l.53.36-.53.35c-.9.58-1.77,1.27-2.77,1.86a8.15,8.15,0,0,1,2.3-2.56v.7A9.25,9.25,0,0,1,58.66,349.58Z"/><path class="cls-6" d="M72,348.11a40.11,40.11,0,0,1,6.38,2.68l.53.27-.39.43a38.17,38.17,0,0,1-4,3.84,36.11,36.11,0,0,1,3.38-4.44l.13.69A40.17,40.17,0,0,1,72,348.11Z"/><path class="cls-6" d="M65.88,347.67a60.31,60.31,0,0,1,7.81,3.6l.54.29-.42.41a57.33,57.33,0,0,1-5,4.56,57,57,0,0,1,4.42-5.18l.12.7A59.84,59.84,0,0,1,65.88,347.67Z"/><path class="cls-7" d="M48.61,342.88c8.49-.12,13.09-6.67,13.11-6.61s-8.16-5.12-16.27-5.42a20.6,20.6,0,0,0-13.87,5.08C31.5,336,40,343,48.61,342.88Z"/><path class="cls-6" d="M48.35,343.33c-8.41,0-17.14-6.76-17.21-7.35l0-.19.13-.16a21.27,21.27,0,0,1,14.22-5.22c4.76.18,10.52,2.07,16.2,5.32l.19.11,1.83.39-1.72.43a17.77,17.77,0,0,1-13.35,6.67h-.27Zm-16.09-7.41c1.62,1.28,8.75,6.52,16.08,6.52h.27A16.8,16.8,0,0,0,61,336.39c-5.5-3.12-11-4.92-15.6-5.09A20.14,20.14,0,0,0,32.26,335.92Z"/><path class="cls-7" d="M61.72,336.27c-5.58,1.09-29.06-.34-30.14-.34"/><path class="cls-6" d="M61.72,336.27c-5,1-10.06.76-15.08.73-2.51-.1-5-.2-7.54-.38s-5-.42-7.52-.69c5-.13,10.06.1,15.09.19l7.53.21A72.58,72.58,0,0,0,61.72,336.27Z"/><path class="cls-6" d="M39.53,333.29c1.84,1,3.66,1.78,5.47,2.85l.55.32-.51.38c-1.32,1-2.54,2.15-3.89,3.21a15.24,15.24,0,0,1,3.38-3.88l0,.7A17.5,17.5,0,0,1,39.53,333.29Z"/><path class="cls-6" d="M36.07,333.72a25.8,25.8,0,0,1,3.44,2.21l.51.4-.55.3c-.94.52-1.85,1.15-2.9,1.66A8.4,8.4,0,0,1,39,335.9l0,.7A9.15,9.15,0,0,1,36.07,333.72Z"/><path class="cls-6" d="M49.5,333.19a39.74,39.74,0,0,1,6.18,3.12l.51.31-.42.4a39.7,39.7,0,0,1-4.23,3.55,37.29,37.29,0,0,1,3.67-4.2l.09.7A39.35,39.35,0,0,1,49.5,333.19Z"/><path class="cls-6" d="M43.41,332.32A59.59,59.59,0,0,1,51,336.46l.51.32-.44.39a57.92,57.92,0,0,1-5.31,4.19,56,56,0,0,1,4.77-4.85l.07.7A60.44,60.44,0,0,1,43.41,332.32Z"/><path class="cls-7" d="M29.9,323.32a17.56,17.56,0,0,0,13.83-4.95c-.07,0-7.46-6.08-15.48-7.38a20.6,20.6,0,0,0-14.39,3.33C13.78,314.33,21.37,322.41,29.9,323.32Z"/><path class="cls-6" d="M31.71,323.86a17.08,17.08,0,0,1-1.86-.1h0c-8.44-.9-16.44-8.85-16.43-9.45v-.18l.14-.14a21.15,21.15,0,0,1,14.76-3.43c4.7.76,10.18,3.34,15.42,7.27l.18.14,1.76.62-1.76.21A18,18,0,0,1,31.71,323.86Zm-17.17-9.47c1.46,1.49,8,7.7,15.41,8.49h0A16.85,16.85,0,0,0,43,318.41c-5.07-3.77-10.34-6.25-14.85-7A20.3,20.3,0,0,0,14.54,314.39Z"/><path class="cls-7" d="M43.73,318.37c-5.67.4-28.8-3.92-29.87-4.05"/><path class="cls-6" d="M43.73,318.37c-5.06.39-10.08-.48-15.06-1.13-2.48-.41-5-.82-7.43-1.31s-4.93-1-7.38-1.61c5,.49,10,1.34,15,2.05l7.44,1.14A75.1,75.1,0,0,0,43.73,318.37Z"/><path class="cls-6" d="M22.07,312.68c1.71,1.2,3.42,2.22,5.08,3.5l.5.39-.55.31c-1.43.81-2.78,1.82-4.25,2.71a15.19,15.19,0,0,1,3.83-3.44l0,.7A17.41,17.41,0,0,1,22.07,312.68Z"/><path class="cls-6" d="M18.59,312.68a26.35,26.35,0,0,1,3.14,2.61l.46.46-.59.24c-1,.39-2,.91-3.08,1.29a8.25,8.25,0,0,1,2.75-2.07l-.13.69A9.1,9.1,0,0,1,18.59,312.68Z"/><path class="cls-6" d="M32,313.81a40.83,40.83,0,0,1,5.74,3.86l.47.37-.47.34a38,38,0,0,1-4.64,3,38.77,38.77,0,0,1,4.16-3.71v.71A40.28,40.28,0,0,1,32,313.81Z"/><path class="cls-6" d="M26.05,312.2a59.78,59.78,0,0,1,7,5l.47.38L33,318a56.67,56.67,0,0,1-5.79,3.5,58,58,0,0,1,5.34-4.23l0,.71A60,60,0,0,1,26.05,312.2Z"/><path class="cls-7" d="M13.35,297.7A17.52,17.52,0,0,0,28,296.78c-.07,0-5.48-7.91-12.82-11.38a20.52,20.52,0,0,0-14.75-.79C.35,284.59,5.41,294.46,13.35,297.7Z"/><path class="cls-6" d="M19.53,299.37a16.59,16.59,0,0,1-6.35-1.26C5.31,294.9-.17,285.05,0,284.48l.06-.18.18-.09a21.14,21.14,0,0,1,15.13.79c4.3,2,8.85,6,12.8,11.27,0,.08.1.14.13.18l1.58,1.09-1.81-.3A18.85,18.85,0,0,1,19.53,299.37ZM1.05,284.86c1,1.85,5.59,9.62,12.47,12.43h0a16.77,16.77,0,0,0,13.8-.66c-3.83-5-8.2-8.88-12.33-10.83A20.36,20.36,0,0,0,1.05,284.86Z"/><path class="cls-7" d="M28,296.78C22.45,295.59,1.42,285,.43,284.61"/><path class="cls-6" d="M28,296.78c-5-1-9.55-3.25-14.15-5.26-2.27-1.08-4.54-2.16-6.78-3.32s-4.44-2.36-6.64-3.59c4.69,1.86,9.21,4.05,13.79,6.11l6.84,3.16A72.58,72.58,0,0,0,28,296.78Z"/><path class="cls-6" d="M8.78,285.31c1.3,1.62,2.66,3.08,3.9,4.77l.38.51-.62.15c-1.6.38-3.18,1-4.84,1.42a15.34,15.34,0,0,1,4.64-2.24l-.24.66A17.21,17.21,0,0,1,8.78,285.31Z"/><path class="cls-6" d="M5.43,284.34a27.13,27.13,0,0,1,2.29,3.38l.31.57-.62.06c-1.07.11-2.16.33-3.32.39a8.38,8.38,0,0,1,3.21-1.23l-.31.63A9,9,0,0,1,5.43,284.34Z"/><path class="cls-6" d="M18,289.14a39.68,39.68,0,0,1,4.44,5.31l.35.47-.55.21A37.17,37.17,0,0,1,17,296.72a38.14,38.14,0,0,1,5-2.41l-.2.69A39.59,39.59,0,0,1,18,289.14Z"/><path class="cls-6" d="M12.73,286a61.85,61.85,0,0,1,5.3,6.77l.34.49-.56.19a55.45,55.45,0,0,1-6.53,1.76,57,57,0,0,1,6.3-2.58l-.22.67A60.66,60.66,0,0,1,12.73,286Z"/><path class="cls-7" d="M12,263.41a17.54,17.54,0,0,0,10.46,10.31c0-.06,2.24-9.36-.07-17.15a20.57,20.57,0,0,0-9.24-11.52C13.06,245,9.07,255.33,12,263.41Z"/><path class="cls-6" d="M23.1,275.71l-1-1.63a17.82,17.82,0,0,1-10.58-10.52h0c-2.84-8,.84-18.65,1.38-18.91l.17-.08.18.07a21.12,21.12,0,0,1,9.51,11.81c1.35,4.57,1.4,10.63.13,17.05,0,.1,0,.17,0,.22Zm-9.77-30c-.71,2-3.46,10.55-1,17.57h0a16.81,16.81,0,0,0,9.7,9.85c1.2-6.21,1.14-12-.16-16.41A20.33,20.33,0,0,0,13.33,245.69Z"/><path class="cls-7" d="M22.41,273.72c-2.82-4.94-9-27.65-9.31-28.67"/><path class="cls-6" d="M22.41,273.72c-2.54-4.39-3.94-9.29-5.52-14.05-.7-2.42-1.41-4.84-2.05-7.27s-1.2-4.89-1.74-7.35c1.74,4.74,3.12,9.57,4.64,14.36l2.2,7.2A72,72,0,0,0,22.41,273.72Z"/><path class="cls-6" d="M18.14,251.74c-.34,2-.52,4-.95,6.09l-.14.62-.51-.36c-1.36-.93-2.85-1.71-4.29-2.66a15.56,15.56,0,0,1,4.76,2l-.65.27A17.39,17.39,0,0,1,18.14,251.74Z"/><path class="cls-6" d="M16.63,248.6a27.63,27.63,0,0,1-1,4l-.22.61-.46-.42c-.79-.73-1.69-1.39-2.5-2.21a8.22,8.22,0,0,1,3,1.57l-.68.18A9.27,9.27,0,0,1,16.63,248.6Z"/><path class="cls-6" d="M21.42,261.16a39.68,39.68,0,0,1-1,6.85l-.12.58-.52-.27a38.59,38.59,0,0,1-4.71-2.88,37.07,37.07,0,0,1,5.15,2.14l-.64.31A39.58,39.58,0,0,1,21.42,261.16Z"/><path class="cls-6" d="M20.3,255.11a60.75,60.75,0,0,1-1.52,8.47l-.14.58-.51-.29a57.29,57.29,0,0,1-5.67-3.7,55.85,55.85,0,0,1,6.13,3l-.65.29A60.52,60.52,0,0,1,20.3,255.11Z"/><path class="cls-7" d="M71.54,328.49c1.3,7.65,9.12,13.22,9.12,13.15s3.73-6.88,2.12-14.15-7.43-12.61-7.43-12.67S70.24,320.92,71.54,328.49Z"/><path class="cls-6" d="M80.83,342.1l-.23,0h0c-.49,0-8.22-6-9.5-13.51h0c-1.09-6.42,2.28-11.84,3.79-13.87l-.14-2.54,1,2.5c2.22,2.27,6.11,6.93,7.41,12.74C84.9,335,81,341.89,81,341.93Zm-5.44-26.58c-1.52,2.13-4.41,7.1-3.41,12.9h0c1.1,6.51,7,11.4,8.52,12.56.74-1.52,3.2-7.27,1.84-13.39C81.14,322.19,77.57,317.79,75.39,315.52Z"/><path class="cls-6" d="M79.22,322.05c-.66,1.53-1.45,2.93-2.11,4.4l-.27.61-.44-.5a49.45,49.45,0,0,1-3.28-4.07A17.44,17.44,0,0,1,77,326l-.71.11A14.1,14.1,0,0,1,79.22,322.05Z"/><path class="cls-6" d="M77.87,318.67c-.37,1.13-.9,2.1-1.34,3.12l-.27.62-.45-.51A19.13,19.13,0,0,1,73.63,319a9.58,9.58,0,0,1,2.82,2.33l-.71.11A8.29,8.29,0,0,1,77.87,318.67Z"/><path class="cls-6" d="M81.35,330.92c-.67,1.76-1.46,3.43-2.1,5.14l-.23.62-.47-.46a59.54,59.54,0,0,1-4.23-4.61,25.16,25.16,0,0,1,4.83,4l-.7.16A17.94,17.94,0,0,1,81.35,330.92Z"/><path class="cls-6" d="M80.92,325.56c-.88,2.12-1.9,4.14-2.75,6.22l-.24.61-.47-.48a73,73,0,0,1-4.87-5.66,38.27,38.27,0,0,1,5.49,5.06l-.71.13A26.61,26.61,0,0,1,80.92,325.56Z"/><path class="cls-6" d="M80.25,341.8a100.42,100.42,0,0,1-5.35-26.95l.89-.05a99.61,99.61,0,0,0,5.28,26.68Z"/><path class="cls-7" d="M54.53,305.62c-.29,7.75,6.24,14.8,6.25,14.72s5.06-6,5-13.42S61,293.07,61,293,54.81,297.94,54.53,305.62Z"/><path class="cls-6" d="M60.88,320.83l-.22-.06c-.44,0-6.86-7.47-6.57-15.17h0c.23-6.52,4.65-11.13,6.54-12.81l.89.16c1.71,2.67,4.57,8,4.66,14,.11,7.78-5.07,13.73-5.12,13.77ZM61,293.7c-1.93,1.78-5.77,6.05-6,11.93h0c-.25,6.58,4.53,12.59,5.79,14,1-1.34,4.61-6.47,4.52-12.74C65.21,301.4,62.61,296.37,61,293.7Z"/><path class="cls-6" d="M63.37,300.87c-1,1.36-2,2.58-3,3.89l-.39.53-.34-.57a49.71,49.71,0,0,1-2.37-4.66,17.42,17.42,0,0,1,3.12,4.21l-.72,0A14.28,14.28,0,0,1,63.37,300.87Z"/><path class="cls-6" d="M62.73,297.29c-.59,1-1.31,1.87-1.95,2.78l-.38.55-.34-.59a19.1,19.1,0,0,1-1.54-3.3,9.51,9.51,0,0,1,2.29,2.86l-.72,0A8.2,8.2,0,0,1,62.73,297.29Z"/><path class="cls-6" d="M63.65,310c-1,1.59-2.13,3.06-3.11,4.61l-.35.55-.37-.54a58.09,58.09,0,0,1-3.19-5.38,25.37,25.37,0,0,1,3.91,4.89h-.72A18,18,0,0,1,63.65,310Z"/><path class="cls-6" d="M64.32,304.66c-1.3,1.9-2.71,3.66-4,5.53l-.37.54-.35-.56A71.7,71.7,0,0,1,56,303.64a39.49,39.49,0,0,1,4.35,6.06h-.72A25.93,25.93,0,0,1,64.32,304.66Z"/><path class="cls-6" d="M60.35,320.42A100.51,100.51,0,0,1,60.6,293l.88.12a99.75,99.75,0,0,0-.26,27.2Z"/><path class="cls-7" d="M40.88,287.59c-1.5,7.61,3.84,15.59,3.86,15.52s5.93-5.1,7-12.47-2.47-14.43-2.45-14.48S42.35,280.05,40.88,287.59Z"/><path class="cls-6" d="M44.76,303.61l-.21-.1c-.43-.1-5.59-8.51-4.11-16,1.26-6.39,6.33-10.25,8.47-11.62l.86.28c1.26,2.9,3.26,8.64,2.41,14.54C51.06,298.42,45,303.47,45,303.5Zm4.32-26.79c-2.17,1.46-6.64,5.08-7.76,10.85h0c-1.28,6.48,2.5,13.15,3.51,14.78,1.23-1.17,5.57-5.67,6.47-11.88C52.11,284.93,50.12,279.28,49.08,276.82Z"/><path class="cls-6" d="M50.35,284.28c-1.16,1.2-2.4,2.23-3.54,3.38l-.46.47-.24-.62a48.22,48.22,0,0,1-1.62-5,17.81,17.81,0,0,1,2.43,4.65l-.71-.15A14.38,14.38,0,0,1,50.35,284.28Z"/><path class="cls-6" d="M50.28,280.65c-.74.92-1.59,1.64-2.36,2.44l-.47.49-.24-.64a19.63,19.63,0,0,1-1-3.51A9.6,9.6,0,0,1,48,282.62l-.7-.16A8.36,8.36,0,0,1,50.28,280.65Z"/><path class="cls-6" d="M49.19,293.34c-1.25,1.41-2.58,2.68-3.79,4.06l-.43.49-.28-.59a58,58,0,0,1-2.31-5.81,24.67,24.67,0,0,1,3.09,5.44l-.71-.11A18.17,18.17,0,0,1,49.19,293.34Z"/><path class="cls-6" d="M50.69,288.18c-1.57,1.67-3.25,3.18-4.77,4.83l-.45.49-.27-.61a72.71,72.71,0,0,1-2.54-7A39.31,39.31,0,0,1,46,292.54l-.71-.13A26.26,26.26,0,0,1,50.69,288.18Z"/><path class="cls-6" d="M44.3,303.11A100.48,100.48,0,0,1,48.86,276l.85.26a99.77,99.77,0,0,0-4.53,26.82Z"/><path class="cls-7" d="M29.21,269.11c-1.95,7.51,2.91,15.8,2.94,15.73s6.22-4.75,7.72-12-1.61-14.55-1.59-14.6S31.13,261.67,29.21,269.11Z"/><path class="cls-6" d="M32.13,285.33l-.21-.11c-.41-.13-5.06-8.8-3.14-16.22,1.63-6.3,6.92-9.86,9.14-11.1l.8.23,0,.1c1.09,3,2.74,8.83,1.54,14.66a22.47,22.47,0,0,1-8,12.35ZM38,258.85c-2.26,1.32-6.93,4.68-8.4,10.37h0c-1.66,6.38,1.72,13.27,2.63,14.95,1.3-1.09,5.9-5.33,7.16-11.46C40.58,267.13,38.93,261.36,38,258.85Z"/><path class="cls-6" d="M38.86,266.37c-1.23,1.13-2.53,2.09-3.73,3.16l-.5.45-.2-.64a51.5,51.5,0,0,1-1.32-5.06,17.38,17.38,0,0,1,2.15,4.78l-.7-.19A14.38,14.38,0,0,1,38.86,266.37Z"/><path class="cls-6" d="M39,262.74c-.81.88-1.69,1.55-2.51,2.3l-.49.46-.2-.65a19.34,19.34,0,0,1-.8-3.56,9.4,9.4,0,0,1,1.62,3.28l-.69-.19A8.08,8.08,0,0,1,39,262.74Z"/><path class="cls-6" d="M37.17,275.34c-1.33,1.34-2.74,2.53-4,3.84l-.46.46-.25-.61a61.66,61.66,0,0,1-2-5.94,25,25,0,0,1,2.77,5.61l-.7-.14A18.23,18.23,0,0,1,37.17,275.34Z"/><path class="cls-6" d="M39,270.28c-1.67,1.57-3.43,3-5,4.55l-.48.45-.23-.62a73.8,73.8,0,0,1-2.13-7.17,39.08,39.08,0,0,1,3,6.87l-.7-.17A26.32,26.32,0,0,1,39,270.28Z"/><path class="cls-6" d="M32.59,284.86l-.89-.05A100.71,100.71,0,0,1,37.86,258l.83.31A99.67,99.67,0,0,0,32.59,284.86Z"/><path class="cls-8" d="M109.19,316.83c-13.54-39-42.47-58.34-42.76-58.53l.58-.88c.3.19,29.52,19.7,43.18,59.06Z"/><path class="cls-8" d="M89.5,280.41c1.24-3.8,0-20.17,0-20.33l1-.09c.06.69,1.28,16.75,0,20.75Z"/><path class="cls-8" d="M95.58,289.69a64.39,64.39,0,0,0-.73-18.55l1-.22a65.88,65.88,0,0,1,.74,18.91Z"/><path class="cls-8" d="M104.94,306a72.37,72.37,0,0,0,.24-25.67l1-.22a73.19,73.19,0,0,1-.23,26.09Z"/><rect class="cls-8" x="102.77" y="285.6" width="1.06" height="11.74" transform="translate(-146.81 109.62) rotate(-34.46)"/><path class="cls-8" d="M90,276.62a74,74,0,0,0-7.14-18.93l.92-.53A75.09,75.09,0,0,1,91,276.39Z"/><path class="cls-8" d="M67.78,268.13l.25-1c.58.14,14.28,3.48,17.37,7.11l-.8.69C81.72,271.52,67.92,268.17,67.78,268.13Z"/><path class="cls-8" d="M87.81,291.6c-1.84-2.19-4.77-12.51-4.89-13l1-.28c.82,2.92,3.27,10.88,4.68,12.55Z"/><path class="cls-8" d="M75.48,285.45l.52-.92c.17.09,16.74,9.49,23.61,9.68l0,1.06C92.45,295.07,76.17,285.84,75.48,285.45Z"/><rect class="cls-8" x="101.26" y="298.03" width="1.06" height="13.99" transform="translate(-193.92 178.71) rotate(-48.42)"/><path class="cls-8" d="M89.2,302.73l.61-.86c.13.09,13,9,18,9.14l0,1.06C102.44,312,89.74,303.11,89.2,302.73Z"/><path class="cls-7" d="M70,260.75a4.36,4.36,0,1,1-.37-6.15A4.35,4.35,0,0,1,70,260.75Z"/><path class="cls-8" d="M66.72,262.57a4.71,4.71,0,1,1,4.71-5,4.71,4.71,0,0,1-4.71,5Zm0-8.71a4,4,0,1,0,3,6.65,3.94,3.94,0,0,0,1-2.89,4,4,0,0,0-4-3.76Z"/><path class="cls-7" d="M86.32,257.24a3,3,0,1,1-3.18-2.82A3,3,0,0,1,86.32,257.24Z"/><path class="cls-8" d="M83.32,260.78a3.36,3.36,0,0,1-.2-6.71h.2a3.36,3.36,0,0,1,3.35,3.16h0a3.37,3.37,0,0,1-3.15,3.56Zm0-6h-.16A2.65,2.65,0,1,0,86,257.26h0A2.67,2.67,0,0,0,83.32,254.77Z"/><path class="cls-7" d="M70.91,267.44a3,3,0,1,1-3.18-2.82A3,3,0,0,1,70.91,267.44Z"/><path class="cls-8" d="M67.9,271a3.38,3.38,0,0,1-3.35-3.16,3.37,3.37,0,0,1,3.16-3.56,3.34,3.34,0,0,1,2.43.85,3.3,3.3,0,0,1,1.12,2.31h0A3.35,3.35,0,0,1,68.11,271Zm0-6h-.16a2.65,2.65,0,0,0,.15,5.3h.16a2.63,2.63,0,0,0,2.49-2.8h0A2.64,2.64,0,0,0,67.91,265Z"/><path class="cls-7" d="M93,259.85A3,3,0,1,1,89.83,257,3,3,0,0,1,93,259.85Z"/><path class="cls-8" d="M90,263.4a3.36,3.36,0,0,1-3.35-3.17,3.4,3.4,0,0,1,.84-2.43,3.34,3.34,0,0,1,2.32-1.12H90a3.37,3.37,0,0,1,3.35,3.16h0a3.37,3.37,0,0,1-3.15,3.56Zm0-6h-.16a2.65,2.65,0,0,0-2.49,2.8,2.66,2.66,0,0,0,.88,1.83,2.72,2.72,0,0,0,1.92.66,2.66,2.66,0,0,0,2.49-2.81h0A2.65,2.65,0,0,0,90,257.38Z"/><path class="cls-7" d="M98.37,270.85A3,3,0,1,1,95.19,268,3,3,0,0,1,98.37,270.85Z"/><path class="cls-8" d="M95.37,274.39a3.36,3.36,0,0,1-.2-6.72h.2a3.38,3.38,0,0,1,3.36,3.16h0a3.37,3.37,0,0,1-3.16,3.55Zm0-6h-.16a2.65,2.65,0,0,0,.16,5.3h.16A2.67,2.67,0,0,0,98,270.87h0A2.67,2.67,0,0,0,95.37,268.38Z"/><path class="cls-7" d="M78.74,284.81A3,3,0,1,1,75.56,282,3,3,0,0,1,78.74,284.81Z"/><path class="cls-8" d="M75.73,288.35a3.36,3.36,0,0,1-.19-6.71h.2a3.36,3.36,0,0,1,3.35,3.16h0a3.37,3.37,0,0,1-3.15,3.56Zm0-6h-.16a2.65,2.65,0,0,0-2.49,2.81A2.63,2.63,0,0,0,74,287a2.72,2.72,0,0,0,1.92.67,2.67,2.67,0,0,0,2.49-2.81h0A2.67,2.67,0,0,0,75.74,282.34Z"/><path class="cls-7" d="M92.5,302.12a3,3,0,1,1-3.18-2.82A3,3,0,0,1,92.5,302.12Z"/><path class="cls-8" d="M89.5,305.75A3.45,3.45,0,0,1,86.92,300a3.41,3.41,0,0,1,2.38-1.15A3.47,3.47,0,0,1,93,302.09h0a3.47,3.47,0,0,1-3.24,3.65Zm0-6h-.16a2.56,2.56,0,0,0,.15,5.12h.16a2.56,2.56,0,0,0,2.4-2.71h0A2.56,2.56,0,0,0,89.51,299.74Z"/><path class="cls-7" d="M108.7,280a3,3,0,1,1-3.18-2.82A3,3,0,0,1,108.7,280Z"/><path class="cls-8" d="M105.7,283.64a3.45,3.45,0,0,1-.21-6.89,3.36,3.36,0,0,1,2.5.86,3.47,3.47,0,0,1,1.15,2.38h0a3.42,3.42,0,0,1-.87,2.49,3.39,3.39,0,0,1-2.37,1.15Zm0-6h-.16a2.56,2.56,0,1,0,2.07,4.26,2.52,2.52,0,0,0,.64-1.85h0a2.54,2.54,0,0,0-2.55-2.41Z"/><path class="cls-7" d="M102.05,286.51a2.07,2.07,0,1,1-2.19-1.95A2.07,2.07,0,0,1,102.05,286.51Z"/><path class="cls-8" d="M100,289.06a2.43,2.43,0,0,1-.14-4.86,2.32,2.32,0,0,1,1.75.61,2.43,2.43,0,0,1-1.46,4.25Zm0-4.15h-.1a1.72,1.72,0,1,0,1.39,2.86,1.66,1.66,0,0,0,.43-1.24A1.71,1.71,0,0,0,100,284.91Z"/><path class="cls-7" d="M98.63,300.26a2.07,2.07,0,1,1-2.19-1.95A2.07,2.07,0,0,1,98.63,300.26Z"/><path class="cls-8" d="M96.56,302.9a2.52,2.52,0,0,1-.15-5,2.57,2.57,0,0,1,2.67,2.36h0a2.53,2.53,0,0,1-2.37,2.67Zm0-4.15h-.1a1.62,1.62,0,0,0-1.53,1.72,1.64,1.64,0,0,0,2.85,1,1.62,1.62,0,0,0,.41-1.18h0A1.63,1.63,0,0,0,96.56,298.75Z"/><path class="cls-7" d="M85.5,278.38a2.07,2.07,0,1,1-2.2-1.94A2.07,2.07,0,0,1,85.5,278.38Z"/><path class="cls-8" d="M83.43,280.94A2.44,2.44,0,0,1,81,278.65a2.43,2.43,0,0,1,4-2,2.35,2.35,0,0,1,.81,1.67h0a2.44,2.44,0,0,1-2.28,2.58Zm0-4.15h-.11a1.7,1.7,0,0,0-1.18.58,1.66,1.66,0,0,0-.43,1.24,1.73,1.73,0,0,0,1.72,1.62h.1a1.72,1.72,0,0,0-.1-3.44Z"/><path class="cls-8" d="M126.87,352.61l3.27-2.82c46.07-39.63,39.55-74.39,39.48-74.73l.87-.18c.06.33,6.11,32.28-33.44,69.86,11.37-9.45,34.66-33.73,52.67-84.64l.84.29c-24.77,70-59.56,89.93-59.91,90.12Z"/><path class="cls-7" d="M169.08,275s-6.24-5.09-4.71-8.16,3-4.44,3.28-6C167.65,260.86,171.3,274.29,169.08,275Z"/><path class="cls-8" d="M169,275.42l-.16-.12c-.26-.22-6.44-5.31-4.8-8.59a32,32,0,0,1,1.91-3.26,7.64,7.64,0,0,0,1.34-2.65l.26-1.62.43,1.58c.88,3.23,3.56,13.82,1.2,14.6Zm-1.41-13.33a15.88,15.88,0,0,1-1,1.74,30.19,30.19,0,0,0-1.87,3.19c-1.11,2.23,2.65,6.07,4.42,7.57C170,273.71,169.07,267.78,167.6,262.09Z"/><path class="cls-7" d="M174.58,267.92a6,6,0,0,0-2.88-5c-2.91-1.67-3.8-1.91-4.14-3.72,0,0-1.39,3.74-.23,6.25s1.47,8,.28,8.4l3-.59Z"/><path class="cls-8" d="M167.67,274.21l-.17-.69c.05,0,.13-.09.21-.27.61-1.36.22-5.65-.7-7.64-1.21-2.61.15-6.36.21-6.52l.44-1.2.25,1.26c.26,1.39.87,1.73,2.88,2.86l1.09.61a6.35,6.35,0,0,1,3.05,5.3V268l-4.11,5.56Zm-.09-13.81a8.09,8.09,0,0,0,.07,4.91c1,2.13,1.37,6.32.79,8l2-.39,3.81-5.14a5.66,5.66,0,0,0-2.7-4.57l-1.08-.61C168.92,261.77,168.05,261.29,167.58,260.4Z"/><path class="cls-7" d="M171.78,277.52s-.42-.85,1.78-3.87,2.69-6.27.19-9.22c0,0,.46,2-.4,2.8,0,0,.27-2.28-1.22-3.39,0,0,.16,2.81-1.35,4s-2.84,3.58-2.32,5c0,0-.32-3.19-2.49-4.16s-1-3.44-.76-3.86c0,0-4.08,4.91.62,9.2l3.95,3.61Z"/><path class="cls-8" d="M169.93,278.06l-.11,0h0l-.18-.11-.06.05-.45-.45c-.61-.52-1.66-1.48-3.53-3.19-4.9-4.46-.7-9.63-.66-9.69l.58.42a3.29,3.29,0,0,0-.41,2.27,1.71,1.71,0,0,0,1,1.07,4.39,4.39,0,0,1,2.14,2.39,7.72,7.72,0,0,1,2.29-3.2c1.35-1.09,1.22-3.7,1.22-3.73l0-.75.61.45a3.27,3.27,0,0,1,1.17,1.75,4.41,4.41,0,0,0-.1-.8l-.31-1.41.93,1.1c2.4,2.85,2.34,6.19-.18,9.66-1.95,2.67-1.74,3.52-1.74,3.53l.24.47h-.54L170,278A.14.14,0,0,1,169.93,278.06Zm-5.59-10.93a5.75,5.75,0,0,0,1.72,6.68l3.85,3.5,1.48-.12c0-.58.39-1.7,1.88-3.75s2.66-4.83,1-7.73a2.39,2.39,0,0,1-.65,1.78l-.69.63.1-.93a4.14,4.14,0,0,0-.53-2.48,4.91,4.91,0,0,1-1.46,3.43,6.21,6.21,0,0,0-2.3,4c.09.38.11.64.12.68l.29,2.84-1-2.68a2.48,2.48,0,0,1-.13-.72c-.22-.93-.78-2.62-2.17-3.24a2.43,2.43,0,0,1-1.41-1.52C164.39,267.4,164.36,267.27,164.34,267.13Z"/><path class="cls-7" d="M173.07,272.86c-1.65.45-2.85,2.43-2.44,1.71,1.25-2.21,1.31-3.78.64-4.79,0,0-.52,3.07-1.68,3.69a1.27,1.27,0,0,0-.3.31,3,3,0,0,0-.4-.69,4.57,4.57,0,0,1-.86-3.15s-1.16,1.69-.79,2.81l.41,1.22a5.2,5.2,0,0,0-2-1.12,4,4,0,0,1-2.52-2.71c0,.9.4,3.1,1.56,3.84,1,.61,3.77,2.94,4.72,3.73,0,0,0,0,.05.05l.29.24s0,0,0-.06a1.49,1.49,0,0,0,1,.23s1.33,0,1.94-2.12,2.35-2.56,2.88-5.74C175.62,270.31,174.72,272.42,173.07,272.86Z"/><path class="cls-8" d="M170,278.67l-.84-.72c-.82-.68-3.68-3.07-4.63-3.67-1.31-.83-1.79-3.15-1.74-4.16l.11-2.27.59,2.2a3.69,3.69,0,0,0,2.27,2.46A4.85,4.85,0,0,1,167,273l-.06-.16c-.42-1.25.71-2.93.84-3.12l.84-1.22-.2,1.46a4.27,4.27,0,0,0,.79,2.89,3.46,3.46,0,0,1,.22.31l0,0c.74-.39,1.31-2.32,1.5-3.44l.16-.89.49.75a3.88,3.88,0,0,1,.11,3.58,4.15,4.15,0,0,1,1.3-.64h0c1.47-.4,2.3-2.33,2.31-2.35l1.17-2.74-.49,2.94a7.65,7.65,0,0,1-1.75,3.79,5.6,5.6,0,0,0-1.14,2c-.68,2.34-2.22,2.38-2.28,2.38a1.73,1.73,0,0,1-.75-.07Zm-.3-1.2.25.17a1.16,1.16,0,0,0,.79.18c.09,0,1.13-.06,1.65-1.87a6.46,6.46,0,0,1,1.25-2.23,8.85,8.85,0,0,0,.9-1.31,3.46,3.46,0,0,1-1.38.8h0a5,5,0,0,0-2.24,1.64c-.11.12-.32.35-.58.17s-.11-.47,0-.62a6.24,6.24,0,0,0,1-3.31,4.59,4.59,0,0,1-1.57,2.7,1.33,1.33,0,0,0-.19.21l-.36.49-.25-.57a2.51,2.51,0,0,0-.34-.6,4.62,4.62,0,0,1-.89-2,2.27,2.27,0,0,0-.16,1.35c.11.34.26.77.42,1.22l.45,1.25-1-.86a4.81,4.81,0,0,0-1.83-1.05,3.48,3.48,0,0,1-1.72-1.07,3,3,0,0,0,1,1.56c1,.61,3.63,2.83,4.74,3.76Z"/><path class="cls-7" d="M187.12,263.1s-3.37-8-.36-10.17,5.14-2.7,6.17-4.06C192.93,248.87,189.61,263.53,187.12,263.1Z"/><path class="cls-8" d="M187.21,263.46h-.15l-.19,0-.08-.18c-.14-.34-3.44-8.31-.23-10.6a33.69,33.69,0,0,1,3.47-2.13,8,8,0,0,0,2.62-1.86l1-1.31-.36,1.61C192.5,252.39,189.79,263.46,187.21,263.46ZM192.32,250a18.62,18.62,0,0,1-1.94,1.18,33.83,33.83,0,0,0-3.41,2.09c-2.21,1.58-.55,7.2.38,9.52C188.64,262.39,190.82,256.19,192.32,250Z"/><path class="cls-7" d="M196,259.11a6.49,6.49,0,0,0-.21-6.21c-1.93-3.07-2.66-3.75-2.07-5.65,0,0-3.21,2.87-3.38,5.84s-2.68,8.41-4,8.16l3.17,1Z"/><path class="cls-8" d="M189.5,262.59l-3.3-1,.17-.69c.09,0,.21,0,.36-.16,1.3-1,3.08-5.24,3.21-7.67.18-3.08,3.37-6,3.5-6.08l.95-.85-.37,1.22c-.46,1.48-.05,2.11,1.3,4.2l.73,1.15a6.84,6.84,0,0,1,.23,6.57l-.06.1Zm-2.2-1.41,2.14.65,6.26-3a6.17,6.17,0,0,0-.26-5.77c-.26-.42-.5-.79-.72-1.13-1.06-1.66-1.62-2.53-1.6-3.63-.93,1-2.36,2.91-2.47,4.79C190.51,255.65,188.73,259.89,187.3,261.18Z"/><path class="cls-7" d="M188.43,266.85s0-1,3.66-2.79,5.74-4.62,4.85-8.69c0,0-.59,2.16-1.8,2.46,0,0,1.41-2,.55-3.85,0,0-1.27,2.76-3.32,3.16s-4.53,2-4.76,3.61c0,0,1.31-3.2-.26-5.23s.75-3.8,1.22-4.06c0,0-6.38,2.61-4.07,9.09s1.95,5.44,1.95,5.44Z"/><path class="cls-8" d="M188.78,267.42l-.49-.24-1.78-.78c-.06,0-.12,0-.2-.08h0a.7.7,0,0,1-.11-.18l-.07,0-.21-.65c-.31-.79-.83-2.23-1.76-4.83-2.39-6.72,4.21-9.51,4.28-9.54l.3.64a3.57,3.57,0,0,0-1.54,2,1.86,1.86,0,0,0,.43,1.57,4.78,4.78,0,0,1,.82,3.41,8.23,8.23,0,0,1,3.85-1.93c1.85-.36,3.06-2.93,3.07-3l.32-.69.32.68a3.6,3.6,0,0,1,.18,2.48,5.26,5.26,0,0,0,.41-1l.38-1.4.31,1.41c.85,3.92-.89,7.07-5,9.09-3.24,1.57-3.45,2.5-3.45,2.51Zm-2.06-1.7,1.53.66c.3-.52,1.19-1.43,3.68-2.64s5.06-3.31,4.84-7a2.69,2.69,0,0,1-1.55,1.45l-.91.22.54-.77a4.52,4.52,0,0,0,.74-2.73,5.4,5.4,0,0,1-3.16,2.59,6.67,6.67,0,0,0-4.25,2.69,5.37,5.37,0,0,1-.24.7l-1.07,2.64.39-2.82a2.62,2.62,0,0,1,.24-.75c.27-1,.58-2.9-.43-4.21a2.54,2.54,0,0,1-.57-2.14,2.43,2.43,0,0,1,.17-.52,6.24,6.24,0,0,0-1.84,7.35Z"/><path class="cls-7" d="M192,263.07c-1.8-.42-4,.87-3.19.39,2.31-1.48,3.16-2.95,3-4.25,0,0-2.06,2.67-3.48,2.67a1.24,1.24,0,0,0-.5.17,3.26,3.26,0,0,0,0-.88,4.94,4.94,0,0,1,.77-3.45s-2,1-2.18,2.28c-.06.4-.15.93-.23,1.47a5.82,5.82,0,0,0-1.3-2.16,4.35,4.35,0,0,1-1-3.87c-.5.84-1.19,3.17-.46,4.46.6,1.05,2,7.2,3.67,7.08,0,0,1.28.66,2.93-1s3.54-1.25,5.66-4C195.75,261.92,193.82,263.48,192,263.07Z"/><path class="cls-8" d="M187.83,267.46a2.08,2.08,0,0,1-.74-.13c-1.31,0-2.25-2.51-3.26-5.53-.27-.78-.5-1.47-.64-1.73-.83-1.44-.1-3.88.45-4.81l1.16-1.94-.51,2.2a4.07,4.07,0,0,0,.93,3.53,4.46,4.46,0,0,1,.89,1.2c0-.11,0-.22,0-.31.24-1.41,2.29-2.49,2.37-2.54l1.32-.68-.87,1.21a4.62,4.62,0,0,0-.71,3.17,2.17,2.17,0,0,1,0,.43h.09c1,0,2.65-1.83,3.19-2.53l.55-.71.09.89c.08.87-.2,2.12-1.77,3.51a4.38,4.38,0,0,1,1.65,0c1.6.38,3.4-1.06,3.42-1.07l2.31-1.86-1.8,2.35a8.22,8.22,0,0,1-3.58,2.72,6.28,6.28,0,0,0-2.1,1.32A3.55,3.55,0,0,1,187.83,267.46Zm-.6-.85.09.05c.05,0,1.09.51,2.51-1a7,7,0,0,1,2.32-1.48,9.8,9.8,0,0,0,1.67-.9,3.71,3.71,0,0,1-1.88.1,5.35,5.35,0,0,0-3,.44c-.16.06-.45.18-.61-.12s.12-.47.28-.57a6.47,6.47,0,0,0,2.72-2.8c-.77.82-2,1.87-2.95,1.88a.77.77,0,0,0-.34.12l-.58.31.08-.84a2.42,2.42,0,0,0,0-.6,4.88,4.88,0,0,1,.22-2.47,2.44,2.44,0,0,0-.92,1.3c-.07.39-.16.93-.24,1.47l-.21,1.33L186,261.6a5.4,5.4,0,0,0-1.21-2,3.94,3.94,0,0,1-1.13-2,3.44,3.44,0,0,0,.19,2.17,14.47,14.47,0,0,1,.7,1.86c.55,1.64,1.69,5,2.6,5h.13Z"/><path class="cls-7" d="M141.62,281.41a16.63,16.63,0,0,0,6,12.58c0-.06,5-7.63,5.47-15.33a19.52,19.52,0,0,0-4.53-13.27C148.56,265.31,141.66,273.27,141.62,281.41Z"/><path class="cls-9" d="M147.62,296.15l-.4-1.92a16.94,16.94,0,0,1-6.05-12.82c0-8.11,6.8-16.42,7.36-16.46l.18,0,.15.12a20.15,20.15,0,0,1,4.69,13.64c-.27,4.52-2.19,9.95-5.4,15.28a1.53,1.53,0,0,1-.1.17Zm.95-30.09c-1.3,1.58-6.48,8.35-6.51,15.35h0a16,16,0,0,0,5.46,11.9c3.06-5.15,4.89-10.35,5.14-14.68A19.37,19.37,0,0,0,148.57,266.06Z"/><path class="cls-7" d="M147.63,294c-.93-5.31.92-27.58.94-28.6"/><path class="cls-9" d="M147.63,294c-.87-4.73-.54-9.56-.41-14.33.15-2.38.29-4.77.52-7.15s.51-4.75.83-7.12c0,4.79-.28,9.55-.47,14.32l-.36,7.14A70.88,70.88,0,0,0,147.63,294Z"/><path class="cls-9" d="M150.91,273c-.95,1.73-1.74,3.45-2.8,5.14l-.33.54-.37-.51c-.9-1.27-2-2.46-2.95-3.78a14.34,14.34,0,0,1,3.63,3.28l-.7,0A16.23,16.23,0,0,1,150.91,273Z"/><path class="cls-9" d="M150.58,269.7a24.17,24.17,0,0,1-2.15,3.23l-.41.5-.29-.56c-.47-.9-1-1.78-1.5-2.79a7.84,7.84,0,0,1,2.24,2.38l-.7-.06A8.27,8.27,0,0,1,150.58,269.7Z"/><path class="cls-9" d="M150.8,282.46a36.08,36.08,0,0,1-3.07,5.81l-.32.5-.39-.43a33.27,33.27,0,0,1-3.26-4.11,33.78,33.78,0,0,1,3.92,3.57l-.71.07A36.18,36.18,0,0,1,150.8,282.46Z"/><path class="cls-9" d="M151.75,276.69a53.67,53.67,0,0,1-4.07,7.09l-.33.5-.37-.45a49.59,49.59,0,0,1-3.86-5.14,50.7,50.7,0,0,1,4.53,4.62l-.71.05A56.76,56.76,0,0,1,151.75,276.69Z"/><path class="cls-7" d="M131.39,264a16.64,16.64,0,0,0,7.44,11.8c0-.07,4.09-8.18,3.64-15.87a19.49,19.49,0,0,0-6.05-12.65C136.39,247.18,130.47,255.89,131.39,264Z"/><path class="cls-9" d="M139.07,278l-.62-2a16.88,16.88,0,0,1-7.5-12h0c-.91-8,4.82-17.09,5.38-17.21l.18,0,.16.11a20,20,0,0,1,6.25,13c.26,4.53-1,10.15-3.58,15.82a1.78,1.78,0,0,1-.08.18Zm-2.57-30.09c-1.11,1.71-5.46,9-4.67,16h0a16,16,0,0,0,6.8,11.18c2.45-5.47,3.65-10.85,3.4-15.18A19.37,19.37,0,0,0,136.5,247.93Z"/><path class="cls-7" d="M137.14,275.9c-.92-5.32.92-27.58.94-28.61"/><path class="cls-9" d="M137.14,275.9c-.87-4.74-.54-9.57-.41-14.33.15-2.39.3-4.77.52-7.15s.51-4.76.83-7.13c0,4.79-.28,9.56-.46,14.32l-.37,7.14A71,71,0,0,0,137.14,275.9Z"/><path class="cls-9" d="M140.42,254.89c-.95,1.74-1.74,3.46-2.79,5.14l-.34.55-.37-.52c-.9-1.27-2-2.45-2.95-3.77a14.33,14.33,0,0,1,3.64,3.27l-.71,0A16.36,16.36,0,0,1,140.42,254.89Z"/><path class="cls-9" d="M140.09,251.6a23.64,23.64,0,0,1-2.15,3.24l-.41.5-.29-.56c-.47-.9-1.05-1.79-1.5-2.8a7.76,7.76,0,0,1,2.24,2.39l-.7-.06A8.39,8.39,0,0,1,140.09,251.6Z"/><path class="cls-9" d="M140.32,264.36a36.5,36.5,0,0,1-3.08,5.81l-.32.51-.39-.44a33.16,33.16,0,0,1-3.26-4.1,34.61,34.61,0,0,1,3.92,3.56l-.7.07A35.47,35.47,0,0,1,140.32,264.36Z"/><path class="cls-9" d="M141.26,258.6a53.56,53.56,0,0,1-4.07,7.08l-.32.51-.38-.46a52.61,52.61,0,0,1-3.86-5.14,52,52,0,0,1,4.53,4.62l-.71.06A55.14,55.14,0,0,1,141.26,258.6Z"/><path class="cls-7" d="M132.91,276.93a11.52,11.52,0,0,1,3.78,11.77c0-.05-10.12-1.52-16.16-6a13.61,13.61,0,0,1-5.62-11.25C114.86,271.35,126.91,271.86,132.91,276.93Z"/><path class="cls-9" d="M139.34,291.56l-2.85-2.45-.2,0c-6.78-1.25-12.48-3.4-16-6.06a14.25,14.25,0,0,1-5.8-11.59l0-.25.12-.08,0,0,.1-.06v0c1.46-.31,13,.89,18.46,5.55a11.81,11.81,0,0,1,4,12Zm-2.3-3.13h0v0Zm-21.71-16.56a13.38,13.38,0,0,0,5.47,10.43c3.42,2.56,8.94,4.65,15.55,5.88a10.9,10.9,0,0,0-3.73-10.91h0C127.34,272.8,117.4,272,115.33,271.87Z"/><path class="cls-7" d="M136.69,288.7c-3.06-3.93-21-16.66-21.78-17.29"/><path class="cls-9" d="M136.69,288.7a59.43,59.43,0,0,0-5.33-4.44l-5.53-4.21c-3.65-2.86-7.4-5.6-10.92-8.64,2,1.25,3.91,2.51,5.82,3.84s3.77,2.71,5.64,4.09C130,282.24,133.79,285,136.69,288.7Z"/><path class="cls-9" d="M118.35,277.68a20.67,20.67,0,0,1,6.53.62l-.5.44a11,11,0,0,1,.82-4.37c0,1.49-.08,2.93,0,4.32l0,.54-.54-.1C122.55,278.76,120.5,278.19,118.35,277.68Z"/><path class="cls-9" d="M116.25,275.41a11.12,11.12,0,0,1,4.44-.17l-.44.51a5.77,5.77,0,0,1,.2-2.92c.29.95.4,1.88.62,2.73l.15.56-.59,0A27.28,27.28,0,0,1,116.25,275.41Z"/><path class="cls-9" d="M125.38,283.54a39.23,39.23,0,0,1,7.32.87l-.5.4a13.91,13.91,0,0,1,.84-4.73c-.09,1.61,0,3.16,0,4.74v.47l-.5-.08A38.57,38.57,0,0,1,125.38,283.54Z"/><path class="cls-9" d="M120.31,280.55a59.62,59.62,0,0,1,9.12,1l-.49.41a48.18,48.18,0,0,1,.62-5.78,48.62,48.62,0,0,1,.19,5.76v.48l-.48-.07A58.22,58.22,0,0,1,120.31,280.55Z"/><path class="cls-7" d="M183.61,295s-17.05-2-33,18.11S167.67,336,167.67,336s6.56-22,9.76-28.66S183.61,295,183.61,295Z"/><path class="cls-10" d="M163,335.84c-5.47-1-14.09-3.59-16.6-9.4-1.65-3.82-.38-8.41,3.78-13.65,16-20.11,33.34-18.33,33.52-18.31l.79.09-.38.7c0,.06-3,5.66-6.17,12.28s-9.66,28.36-9.73,28.58l-.12.42-.44,0C167.4,336.49,165.53,336.33,163,335.84Zm19.76-40.32c-3.56-.07-18.11.8-31.73,18-3.89,4.89-5.11,9.11-3.63,12.54,3.12,7.21,17.23,9.08,19.9,9.38,1-3.19,6.68-22.09,9.66-28.31C179.43,301.86,181.82,297.27,182.74,295.52Z"/><path class="cls-10" d="M149.94,325.91q2.22-4.16,4.78-8.12a62.24,62.24,0,0,1,5.7-7.55,40.59,40.59,0,0,1,7.08-6.33,35.6,35.6,0,0,1,4.08-2.42,27.15,27.15,0,0,1,4.42-1.68,38.23,38.23,0,0,0-8,4.78,51.55,51.55,0,0,0-6.76,6.37c-2.08,2.31-4,4.79-5.82,7.3Z"/><path class="cls-10" d="M154.33,324.08a37.55,37.55,0,0,1,6.52-10,38,38,0,0,1,9.19-7.57,111.19,111.19,0,0,0-8.38,8.29A105.2,105.2,0,0,0,154.33,324.08Z"/><path class="cls-10" d="M156.49,326.31c2.51-2.8,5.1-5.45,7.65-8.16s5.09-5.41,7.76-8.06a62.15,62.15,0,0,1-15.41,16.22Z"/><path class="cls-7" d="M37.64,347.64s14.9-30.87,59.41-1.8c0,0-.6,13.53-16.22,14.08S41,346.74,37.64,347.64Z"/><path class="cls-10" d="M72.35,359.68C64.1,358.1,55.11,354.46,48,351.6c-4.72-1.91-9.19-3.72-10.26-3.43l-1.14.3.51-1.07A28,28,0,0,1,54.3,334c11.89-3.3,26.38.54,43.05,11.42l.26.17v.31c0,.14-.82,14.05-16.75,14.6A38.09,38.09,0,0,1,72.35,359.68ZM39,347.16c1.81.35,4.84,1.55,9.5,3.44,9,3.63,22.56,9.12,32.36,8.78,13.81-.49,15.48-11.25,15.68-13.26C80.2,335.54,66.1,331.81,54.59,335a27.48,27.48,0,0,0-16,12.09Z"/><path class="cls-7" d="M106.75,363.07c-1.7,6.37-.54,13.66,3.84,18.58a34.09,34.09,0,0,0,7,5.52L127.9,394c2.14-2.53,4.49-4.88,6.6-7.45,4-4.88,7.14-10.65,8-16.91s-.61-13-4.86-17.7-12.44-7.41-18.72-5.09C113,349,108.29,357.3,106.75,363.07Z"/><path class="cls-10" d="M128,394.67l-10.72-7a34.79,34.79,0,0,1-7.1-5.62c-4.3-4.83-5.81-12.14-4-19.08,1.72-6.45,6.7-14.47,12.55-16.64,6.21-2.3,14.51-.05,19.31,5.24,4.12,4.53,6,11.31,5,18.14-.84,5.83-3.59,11.61-8.16,17.18-1.14,1.38-2.36,2.71-3.54,4-1,1.12-2.07,2.28-3.06,3.45Zm-.74-47.84a15.37,15.37,0,0,0-8.12.48c-5.85,2.17-10.47,10.6-11.87,15.9h0c-1.76,6.59-.33,13.52,3.72,18.08a34.44,34.44,0,0,0,6.88,5.43l9.92,6.51c.91-1.06,1.86-2.1,2.78-3.11,1.17-1.28,2.38-2.61,3.5-4,4.44-5.41,7.11-11,7.93-16.65.94-6.51-.83-13-4.74-17.25A18.36,18.36,0,0,0,127.27,346.83Z"/><path class="cls-10" d="M122.18,382.78a27,27,0,0,1-7.82-16,23.52,23.52,0,0,1,.86-9.06,20.71,20.71,0,0,1,4.39-8l1.42-1.58-.52,2.06a31.43,31.43,0,0,0-.94,7.23,43.88,43.88,0,0,0,.58,7.32,78.26,78.26,0,0,0,4.1,14.2,61.92,61.92,0,0,1-4.86-14.06,35.26,35.26,0,0,1-.78-7.46,32.48,32.48,0,0,1,.88-7.48l.9.47a21.4,21.4,0,0,0-4.2,7.6,23.41,23.41,0,0,0-1,8.69,25.82,25.82,0,0,0,2.19,8.52A31.11,31.11,0,0,0,122.18,382.78Z"/><path class="cls-10" d="M122,350.83a42.24,42.24,0,0,1,4.19,8.13,47.54,47.54,0,0,1,3.28,18l-.09,2.3-.19,2.28-.33,2.26c-.14.75-.29,1.5-.45,2.24.05-.76.1-1.52.17-2.27l.08-2.27,0-2.26-.06-2.26a65.58,65.58,0,0,0-3.22-17.7A71.52,71.52,0,0,0,122,350.83Z"/><path class="cls-10" d="M126.24,350.44a27.66,27.66,0,0,1,4.84,6.17,31.16,31.16,0,0,1,3.09,7.25,30.74,30.74,0,0,1,1.18,7.79l0,2-.13,2-.29,1.94c-.14.64-.28,1.28-.43,1.91,0-.65.08-1.3.14-1.95l0-1.93,0-1.94-.13-1.92a40.75,40.75,0,0,0-1.4-7.54,41.24,41.24,0,0,0-2.77-7.16A43.31,43.31,0,0,0,126.24,350.44Z"/><path class="cls-7" d="M120.73,313a8.15,8.15,0,0,1-2.94,6.52,12,12,0,0,1-6.78,2.68c-6.63.59-13.16-3.24-16.93-8.73s-5-12.37-4.83-19,1.85-13.17,3.46-19.62a89,89,0,0,1,17.46,10.54c5.59,4.41,10.93,10.09,11.69,17.17C122.17,305.45,120.54,310.07,120.73,313Z"/><path class="cls-10" d="M106.53,322.49a20.75,20.75,0,0,1-12.89-8.72c-4.39-6.39-5.11-14-4.93-19.34.22-6.74,1.87-13.34,3.47-19.73l.16-.64.6.28a89,89,0,0,1,17.57,10.6c7.36,5.81,11.24,11.55,11.89,17.54a21.2,21.2,0,0,1-.57,5.6,22.2,22.2,0,0,0-.56,4.88h0a8.65,8.65,0,0,1-3.12,7,12.62,12.62,0,0,1-7.1,2.8A16.76,16.76,0,0,1,106.53,322.49ZM93.07,275.6c-1.53,6.14-3.06,12.47-3.27,18.86-.17,5.14.51,12.55,4.73,18.7,3.92,5.69,10.36,9,16.43,8.49a11.61,11.61,0,0,0,6.48-2.55,7.65,7.65,0,0,0,2.75-6.07h0a22.89,22.89,0,0,1,.57-5.15,21,21,0,0,0,.56-5.29c-.61-5.68-4.37-11.18-11.49-16.8A87.43,87.43,0,0,0,93.07,275.6Z"/><path class="cls-7" d="M144.49,275.13s-32.18,10.72-30.65,38.22,27.4,21.36,27.4,21.36L150.48,291S148.91,280.44,144.49,275.13Z"/><path class="cls-10" d="M130,335.37a20.49,20.49,0,0,1-8.46-3.61c-5-3.75-7.82-9.94-8.29-18.38-1.52-27.59,30.7-38.66,31-38.77l.35-.12.24.29c4.47,5.37,6,15.74,6.11,16.18v.1l0,.1-9.31,44-.34.08A29.82,29.82,0,0,1,130,335.37Zm14.27-59.6c-3.48,1.28-31.33,12.33-29.93,37.55.45,8.11,3.09,14,7.85,17.57,7,5.26,16.65,3.73,18.55,3.36L149.93,291C149.76,290,148.19,280.72,144.31,275.77Z"/><path class="cls-7" d="M70.87,326a43.72,43.72,0,0,1-12.5-15.17,104.7,104.7,0,0,1-7.12-18.48,84.53,84.53,0,0,1,25.52,3.55,51.64,51.64,0,0,1,16,7.56,29.2,29.2,0,0,1,10.61,13.92,14,14,0,0,1,.81,5.57,9.67,9.67,0,0,1-12.84,8.23"/><path class="cls-10" d="M92.56,332.11a10,10,0,0,1-1.4-.38l.36-1a9.11,9.11,0,0,0,12.11-7.76,13.09,13.09,0,0,0-.78-5.35,28.75,28.75,0,0,0-10.41-13.66,51,51,0,0,0-15.83-7.47A84,84,0,0,0,52,292.92a102,102,0,0,0,6.87,17.69,42.9,42.9,0,0,0,12.35,15l-.65.88a44.13,44.13,0,0,1-12.67-15.36,106.22,106.22,0,0,1-7.15-18.58l-.21-.69h.72a85,85,0,0,1,25.68,3.58,52.07,52.07,0,0,1,16.17,7.64,29.46,29.46,0,0,1,10.79,14.19,14.18,14.18,0,0,1,.84,5.79,10.2,10.2,0,0,1-12.16,9.07Z"/><path class="cls-7" d="M165.39,280.87s-15-2.88-26.9,13.28-13.89,38.66-3.26,40.47,20.78-4.88,24-21.55S159,297.15,165.39,280.87Z"/><path class="cls-10" d="M135,335.12a8.07,8.07,0,0,1-6-5.35c-3.46-8.56.53-24.34,9.07-35.94,12-16.25,27.29-13.52,27.44-13.49l.65.12-.24.61c-3.89,9.91-4.13,13.53-4.45,18.53a97.49,97.49,0,0,1-1.71,13.57c-3.58,18.68-15.06,23.61-24.6,22Zm29.66-53.8c-3-.3-15.55-.63-25.7,13.15-9.31,12.64-11.86,27.67-9,34.89,1.1,2.72,2.92,4.3,5.34,4.72,11.53,2,20.48-6.13,23.36-21.11a94.66,94.66,0,0,0,1.68-13.44C160.69,294.54,160.92,290.9,164.63,281.32Z"/><path class="cls-7" d="M130.57,339.3c.53,2.6-1.23,5.14-3.32,6.77-6.65,5.2-17,3.94-23.23-1.76s-8.56-14.86-7.32-23.22a33.83,33.83,0,0,1,19.51-25.53c-.3,5.43,1.46,10.28,3.74,15.21a143.29,143.29,0,0,0,8.12,14.12C130.15,328.3,129.79,335.39,130.57,339.3Z"/><path class="cls-10" d="M113.32,349.49a19.9,19.9,0,0,1-9.67-4.78c-6-5.46-8.84-14.54-7.49-23.7A34.46,34.46,0,0,1,116,295.06l.81-.35,0,.88c-.3,5.48,1.6,10.43,3.7,15a106.83,106.83,0,0,0,6.41,11.35l1.68,2.72c1.44,2.36,1.75,6.33,2,9.84a44,44,0,0,0,.54,4.75h0c.49,2.46-.82,5.18-3.52,7.29A17.78,17.78,0,0,1,113.32,349.49Zm2.32-53.07a33.34,33.34,0,0,0-18.4,24.75c-1.31,8.8,1.43,17.52,7.14,22.74,6.29,5.75,16.4,6.53,22.54,1.73,1.83-1.43,3.61-3.82,3.12-6.23h0a44.6,44.6,0,0,1-.55-4.88c-.27-3.38-.58-7.21-1.88-9.35-.55-.91-1.11-1.81-1.67-2.71A108.88,108.88,0,0,1,119.46,311C117.42,306.59,115.56,301.78,115.64,296.42Z"/><path class="cls-7" d="M51.34,320.19s19.45-11,47.87.9c10.2,4.26,21.42,14.58,20.82,19-1.08,7.84-22.64,8.53-32.26,5.86C72.77,341.73,62.21,321.34,51.34,320.19Z"/><path class="cls-10" d="M90,347c-.84-.17-1.62-.34-2.33-.54-7.83-2.18-14.53-8.77-20.45-14.58-5.55-5.44-10.79-10.58-15.89-11.12l-1.69-.18,1.48-.84c.2-.11,20-11,48.35.88,10.53,4.4,21.79,14.81,21.15,19.53a6.11,6.11,0,0,1-3,4.21C111.49,348.32,98,348.51,90,347ZM53.06,320c4.91,1.34,9.76,6.11,14.87,11.12,5.82,5.72,12.43,12.2,20,14.3,7.37,2.06,22.82,2.13,29.05-2a5.08,5.08,0,0,0,2.52-3.45c.53-3.83-10-14-20.49-18.38C75.5,311.76,58.06,317.78,53.06,320Z"/><path class="cls-7" d="M37.64,347.64a51,51,0,0,1,16.52,9.16c7.82,6.6,32.39,14.86,45.75-2.75,0,0-2.17-8.33-11.18-4.11s-14.16,7.58-27.84,4.16S41.29,346.57,37.64,347.64Z"/><path class="cls-10" d="M70.38,364.42c-6.81-1.31-13-4.18-16.57-7.21a50.87,50.87,0,0,0-16.32-9l-1.78-.52,1.78-.52c2.19-.64,4.9.35,9.39,2A129.44,129.44,0,0,0,61,353.57c12.37,3.09,17.52.63,25.32-3.1l2.16-1c3-1.42,5.67-1.63,7.84-.61a8.31,8.31,0,0,1,4.09,5.08l.07.25-.16.21A26.41,26.41,0,0,1,81.52,365,37.49,37.49,0,0,1,70.38,364.42ZM41,348.31a52.25,52.25,0,0,1,13.47,8.07c4.25,3.58,15.3,8.78,26.89,7.5A25.38,25.38,0,0,0,99.3,354a7.2,7.2,0,0,0-3.43-4.13c-1.86-.87-4.19-.66-6.91.62l-2.15,1c-7.73,3.69-13.31,6.36-26.05,3.18a133.62,133.62,0,0,1-14.26-4.5A56.63,56.63,0,0,0,41,348.31Z"/><path class="cls-7" d="M126.55,351.5s3.77,20.8,25.67,21,32.65-8.4,43.6-7.72c0,0-3.81-20.55-30.71-20.17S126.55,351.5,126.55,351.5Z"/><path class="cls-10" d="M146.66,372.52c-17.24-3.31-20.61-20.73-20.64-20.92l-.07-.38.34-.19c.48-.27,12.09-6.57,38.81-6.95,27.05-.38,31.21,20.41,31.25,20.62l.13.69-.7-.05c-4.64-.29-9.36,1.17-14.83,2.85-7.23,2.23-16.23,5-28.73,4.87A30.93,30.93,0,0,1,146.66,372.52ZM127.17,351.8c.64,2.91,5.26,20,25.06,20.18,12.34.12,21.25-2.62,28.4-4.83,5.3-1.63,9.9-3,14.5-2.92-.92-3.56-6.33-19.4-30-19.06C141.19,345.51,129.3,350.76,127.17,351.8Z"/><path class="cls-7" d="M204.24,320.91s-5.21,3.57-11.94,12.65-27,23.87-54,16.21c0,0,11.95-25.87,26.93-33.23S191.61,314.13,204.24,320.91Z"/><path class="cls-10" d="M143,351.44c-1.59-.31-3.2-.69-4.82-1.15l-.62-.17.27-.58c.49-1.06,12.2-26.13,27.18-33.49,15.13-7.42,26.83-2.41,39.47,4.38l.79.43-.74.5c-.05,0-5.23,3.63-11.81,12.52C185.39,343.81,166.5,356,143,351.44Zm-3.91-2c24.9,6.77,45.15-5.91,52.75-16.18A63.7,63.7,0,0,1,203.23,321c-12.09-6.44-23.36-11-37.72-4C152.1,323.61,141,345.56,139.11,349.42Z"/><path class="cls-7" d="M92.84,341.05c19.94-9.64,25.36-.76,26.09.62,1.71,3.22,1.9,7,1.41,10.65a18.37,18.37,0,0,1-3.42,9,16.43,16.43,0,0,1-9.39,5.59,32.77,32.77,0,0,1-11.09.29,49.43,49.43,0,0,1-18.67-5.75c-2.47-1.4-13.46-12.17-13.46-12.17S77,348.72,92.84,341.05Z"/><path class="cls-10" d="M91.91,367a47.22,47.22,0,0,1-14.41-5.13c-2.5-1.42-13.12-11.81-13.57-12.25l-.9-.88,1.26-.05c.12,0,12.75-.62,28.31-8.15h0c20-9.65,25.83-1,26.81.86,1.56,2.94,2.06,6.63,1.47,11a18.9,18.9,0,0,1-3.53,9.24,17,17,0,0,1-9.7,5.78,33,33,0,0,1-11.28.3C94.85,367.53,93.36,367.3,91.91,367ZM65.55,349.7C68.17,352.25,76.05,359.82,78,361a48.7,48.7,0,0,0,18.46,5.68,31.92,31.92,0,0,0,10.91-.28A16,16,0,0,0,116.5,361a17.91,17.91,0,0,0,3.3-8.72c.56-4.1.11-7.58-1.35-10.31-.89-1.68-6.31-9.6-25.38-.39l-.23-.49.23.49A84.82,84.82,0,0,1,65.55,349.7Z"/><path class="cls-10" d="M74.08,353.38c1.73,1,3.49,1.93,5.28,2.77s3.6,1.7,5.44,2.43A64,64,0,0,0,96.13,362a38.51,38.51,0,0,0,5.85.74,31.12,31.12,0,0,0,5.87-.23,24.94,24.94,0,0,0,5.69-1.47,26.67,26.67,0,0,0,5.21-2.85,23.1,23.1,0,0,1-5,3.33,25.39,25.39,0,0,1-5.78,1.82,32.61,32.61,0,0,1-12.06-.27,52.5,52.5,0,0,1-11.44-3.75A58.48,58.48,0,0,1,74.08,353.38Z"/><path class="cls-10" d="M81.88,352.6c1.6.43,3.18.88,4.79,1.25s3.2.79,4.81,1.13c3.22.67,6.45,1.29,9.71,1.64a48.4,48.4,0,0,0,9.77.26,22.1,22.1,0,0,0,4.78-.93,13.43,13.43,0,0,0,4.37-2.2,12.48,12.48,0,0,1-4.18,2.7,22.8,22.8,0,0,1-4.87,1.26,39.3,39.3,0,0,1-10,0,67.34,67.34,0,0,1-9.78-1.91A71.84,71.84,0,0,1,81.88,352.6Z"/><path class="cls-10" d="M87.17,349.64c2.77-.34,5.56-.49,8.36-.57s5.59,0,8.38.11a69,69,0,0,1,8.35.9,33.78,33.78,0,0,1,8.08,2.24c-.68-.15-1.36-.32-2-.49l-2-.36c-1.37-.23-2.74-.44-4.12-.56-2.75-.3-5.52-.51-8.29-.65s-5.55-.25-8.33-.36Z"/><path class="cls-10" d="M94.39,345.11a31.33,31.33,0,0,1,5.6-2.36,32.54,32.54,0,0,1,6-1.33,20.15,20.15,0,0,1,6.15.14,9.8,9.8,0,0,1,5.39,2.81,11.91,11.91,0,0,0-5.53-2,25.17,25.17,0,0,0-5.88.1,53.94,53.94,0,0,0-5.87,1.06C98.27,344,96.33,344.53,94.39,345.11Z"/><path class="cls-7" d="M167.37,322.39s-38.71-10.08-48.27,15.18c-4.55,12,1.1,14.81,8.44,16.24C150.22,358.23,163,334.51,167.37,322.39Z"/><path class="cls-10" d="M127.52,354.36l-.09,0c-3.68-.71-7.7-1.88-9.5-5.12-1.53-2.75-1.31-6.62.66-11.84,9.63-25.42,48.52-15.61,48.92-15.51l.57.15-.2.56C165.64,328.76,153.19,359.29,127.52,354.36Zm37.18-32c-8.71-1.67-37.22-5.4-45.09,15.39-1.86,4.91-2.1,8.48-.73,10.93,1.59,2.85,5.32,3.92,8.76,4.59h.08c24.11,4.63,36.25-23.38,38.93-30.51Z"/><path class="cls-10" d="M118.26,348.69a32.82,32.82,0,0,1,.52-5.76,12.36,12.36,0,0,1,.84-2.83c.48-.87,1-1.7,1.5-2.51a30.47,30.47,0,0,1,8.24-8.2A32.17,32.17,0,0,1,140,324.78a33.11,33.11,0,0,1,5.77-.72,28.41,28.41,0,0,1,5.76.46,35.49,35.49,0,0,0-11.33,1.07,35.83,35.83,0,0,0-10.27,4.7,33.47,33.47,0,0,0-8.16,7.77c-.56.76-1.09,1.57-1.57,2.35a12.51,12.51,0,0,0-.94,2.64A40.88,40.88,0,0,0,118.26,348.69Z"/><path class="cls-10" d="M156.48,327.31c-1.88.41-3.75.84-5.59,1.35s-3.69,1-5.51,1.61a83.22,83.22,0,0,0-10.63,4.19,43.2,43.2,0,0,0-9.54,6.12,22.92,22.92,0,0,0-3.83,4.16,20.42,20.42,0,0,0-2.68,5,19.91,19.91,0,0,1,6-9.81,38.14,38.14,0,0,1,9.63-6.48,63.52,63.52,0,0,1,10.86-4A68.54,68.54,0,0,1,156.48,327.31Z"/><path class="cls-10" d="M119.54,350c1.23.14,2.45.28,3.69.3s2.45.09,3.67.05a41.72,41.72,0,0,0,7.24-.84,38.64,38.64,0,0,0,7-2.15l1.66-.76c.56-.25,1.07-.59,1.61-.87,1.12-.53,2.08-1.3,3.16-1.92a26.37,26.37,0,0,1-6.08,4.31,29.5,29.5,0,0,1-7.09,2.46,31.25,31.25,0,0,1-7.47.6A28.5,28.5,0,0,1,119.54,350Z"/><path class="cls-10" d="M153.64,332.72a64.89,64.89,0,0,1-7.44,6.08,76.71,76.71,0,0,1-8.19,5.1,63.14,63.14,0,0,1-8.85,3.85,40.65,40.65,0,0,1-9.42,2c1.56-.42,3.13-.68,4.63-1.23,1.54-.4,3-1,4.51-1.54a95,95,0,0,0,8.62-4c2.8-1.5,5.53-3.13,8.23-4.83,1.35-.84,2.68-1.73,4-2.64S152.34,333.65,153.64,332.72Z"/><path class="cls-5" d="M45.31,115.9a76.94,76.94,0,0,1,153.87-.45"/><path class="cls-11" d="M13.14,116.7a.71.71,0,0,1-.71-.71A109.82,109.82,0,0,1,121.93,5.86h.33a109.82,109.82,0,0,1,109.8,109.5.71.71,0,0,1-.71.71h0a.71.71,0,0,1-.71-.71A108.52,108.52,0,0,0,122.25,7.28h-.31A108.4,108.4,0,0,0,13.85,116a.7.7,0,0,1-.7.71Z"/><path class="cls-10" d="M126.64,106.47l3.28-2.82C176,64,169.47,29.26,169.4,28.92l.86-.18c.07.33,6.11,32.28-33.43,69.86C148.19,89.15,171.49,64.88,189.5,14l.84.29c-24.77,70-59.57,89.93-59.92,90.12Z"/><path class="cls-7" d="M168.86,28.88s-6.24-5.09-4.71-8.16,3-4.44,3.27-6C167.42,14.72,171.08,28.15,168.86,28.88Z"/><path class="cls-10" d="M168.78,29.28l-.15-.12c-.26-.21-6.44-5.31-4.8-8.59a30.25,30.25,0,0,1,1.91-3.26,7.33,7.33,0,0,0,1.33-2.65l.26-1.62.44,1.59c.87,3.22,3.56,13.81,1.2,14.59ZM167.38,16a16.55,16.55,0,0,1-1,1.74,30.19,30.19,0,0,0-1.87,3.19c-1.11,2.23,2.65,6.07,4.42,7.57C169.76,27.57,168.85,21.64,167.38,16Z"/><path class="cls-7" d="M174.36,21.78a6,6,0,0,0-2.88-5c-2.92-1.67-3.8-1.91-4.15-3.72,0,0-1.38,3.75-.22,6.25s1.46,8,.27,8.41l3-.6Z"/><path class="cls-10" d="M167.45,28.07l-.17-.68c.05,0,.13-.1.21-.28.62-1.39.23-5.61-.71-7.64-1.2-2.61.16-6.36.22-6.52l.44-1.19.24,1.25c.27,1.39.87,1.73,2.88,2.85l1.09.62a6.35,6.35,0,0,1,3.06,5.3v.12l-4.11,5.56Zm-.1-13.81a8.09,8.09,0,0,0,.08,4.91c1,2.12,1.37,6.32.78,8l2-.39L174,21.67a5.7,5.7,0,0,0-2.7-4.57l-1.08-.62C168.69,15.63,167.83,15.15,167.35,14.26Z"/><path class="cls-7" d="M171.56,31.38s-.43-.85,1.77-3.87,2.69-6.27.2-9.22c0,0,.46,2-.41,2.8,0,0,.27-2.28-1.22-3.39,0,0,.16,2.81-1.34,4s-2.84,3.59-2.32,5c0,0-.32-3.19-2.49-4.16s-1-3.44-.76-3.86c0,0-4.09,4.91.61,9.2l4,3.61Z"/><path class="cls-10" d="M169.7,31.92l-.11,0h0l-.19-.11-.05,0-.46-.46c-.61-.51-1.66-1.47-3.53-3.17-4.89-4.47-.69-9.64-.65-9.69l.57.42a3.31,3.31,0,0,0-.4,2.26,1.72,1.72,0,0,0,1,1.08A4.34,4.34,0,0,1,168,24.65a7.63,7.63,0,0,1,2.29-3.2c1.35-1.09,1.22-3.7,1.22-3.72l0-.76.61.45a3.34,3.34,0,0,1,1.17,1.74,5.34,5.34,0,0,0-.11-.79L172.87,17l.93,1.1c2.41,2.85,2.35,6.19-.18,9.66-2,2.67-1.73,3.52-1.73,3.53l.24.47h-.54l-1.78.14A.14.14,0,0,1,169.7,31.92ZM164.12,21a5.75,5.75,0,0,0,1.72,6.68l3.84,3.5,1.49-.11c0-.58.38-1.71,1.88-3.76s2.66-4.83,1-7.73a2.47,2.47,0,0,1-.65,1.79l-.7.62.11-.93a4.22,4.22,0,0,0-.53-2.48A5,5,0,0,1,170.78,22a6.15,6.15,0,0,0-2.3,4c.08.38.11.64.12.68l.28,2.82-1-2.66a2.49,2.49,0,0,1-.14-.73,4.61,4.61,0,0,0-2.16-3.23,2.38,2.38,0,0,1-1.41-1.52A2.57,2.57,0,0,1,164.12,21Z"/><path class="cls-7" d="M172.85,26.72c-1.65.45-2.85,2.43-2.44,1.72,1.25-2.22,1.31-3.79.64-4.8,0,0-.52,3.07-1.68,3.7a1,1,0,0,0-.3.31,3,3,0,0,0-.4-.69,4.6,4.6,0,0,1-.86-3.16s-1.17,1.69-.8,2.81c.11.33.26.77.42,1.22a5.33,5.33,0,0,0-2-1.12A4,4,0,0,1,162.93,24c0,.9.41,3.11,1.57,3.84,1,.61,3.77,2.94,4.71,3.73l.06.05.28.24V31.8a1.44,1.44,0,0,0,1,.23s1.33,0,1.94-2.12,2.35-2.55,2.88-5.74C175.4,24.17,174.5,26.28,172.85,26.72Z"/><path class="cls-10" d="M169.91,32.62l-1-.81c-.82-.68-3.69-3.07-4.64-3.67-1.3-.82-1.78-3.15-1.73-4.16l.1-2.27.6,2.2a3.69,3.69,0,0,0,2.27,2.46,5,5,0,0,1,1.18.51l-.06-.16c-.41-1.25.71-2.93.84-3.12l.84-1.22-.19,1.47a4.23,4.23,0,0,0,.79,2.89,1.41,1.41,0,0,1,.21.31l0,0c.73-.39,1.31-2.32,1.5-3.44l.15-.88.49.75a3.82,3.82,0,0,1,.12,3.57,4.1,4.1,0,0,1,1.29-.64h0c1.47-.39,2.31-2.33,2.32-2.35l1.16-2.72-.48,2.92A7.52,7.52,0,0,1,174,28a5.83,5.83,0,0,0-1.13,2c-.68,2.34-2.22,2.38-2.28,2.38a1.68,1.68,0,0,1-.67,0Zm-.38-1.25.2.13a1.16,1.16,0,0,0,.8.18c.08,0,1.12-.06,1.65-1.87a6.32,6.32,0,0,1,1.25-2.22,9.53,9.53,0,0,0,.9-1.32,3.43,3.43,0,0,1-1.39.8h0a5.17,5.17,0,0,0-2.24,1.64c-.1.12-.3.38-.58.17s-.11-.47,0-.62a6.24,6.24,0,0,0,1-3.31,4.59,4.59,0,0,1-1.57,2.7,1,1,0,0,0-.19.21l-.37.5-.24-.57a2.45,2.45,0,0,0-.35-.61,4.5,4.5,0,0,1-.88-2,2.15,2.15,0,0,0-.16,1.36c.09.29.22.66.36,1.05l.49,1.4-1-.85a5,5,0,0,0-1.84-1.05A3.57,3.57,0,0,1,163.64,26a3.09,3.09,0,0,0,1.05,1.56c1,.61,3.64,2.83,4.75,3.76Z"/><path class="cls-7" d="M186.9,17s-3.37-8-.36-10.17,5.14-2.7,6.17-4.06C192.71,2.73,189.39,17.39,186.9,17Z"/><path class="cls-10" d="M187,17.32h-.15l-.2,0-.07-.18c-.14-.34-3.44-8.31-.24-10.6a36.8,36.8,0,0,1,3.47-2.13,7.92,7.92,0,0,0,2.62-1.86l1-1.31-.37,1.61C192.27,6.25,189.56,17.32,187,17.32Zm5.1-13.51A15.71,15.71,0,0,1,190.15,5a33.83,33.83,0,0,0-3.41,2.09c-2.2,1.58-.54,7.2.39,9.52C188.42,16.25,190.59,10.05,192.09,3.81Z"/><path class="cls-7" d="M195.74,13a6.53,6.53,0,0,0-.22-6.22c-1.93-3.07-2.65-3.75-2.06-5.65,0,0-3.22,2.87-3.39,5.84s-2.67,8.42-4,8.16l3.17,1Z"/><path class="cls-10" d="M189.28,16.45l-3.31-1,.17-.69c.1,0,.22,0,.37-.16,1.3-1,3.07-5.24,3.21-7.66.18-3.09,3.37-6,3.5-6.09l.95-.85-.37,1.22c-.46,1.48-.05,2.11,1.3,4.21l.72,1.14a6.81,6.81,0,0,1,.23,6.57l-.06.11ZM187.08,15l2.14.65,6.25-3A6.15,6.15,0,0,0,195.22,7c-.26-.42-.5-.79-.72-1.13-1.06-1.66-1.63-2.53-1.6-3.63-.93,1-2.37,2.9-2.47,4.79C190.28,9.51,188.51,13.75,187.08,15Z"/><path class="cls-7" d="M188.21,20.71s0-1,3.65-2.79,5.75-4.62,4.86-8.69c0,0-.59,2.16-1.8,2.46,0,0,1.41-2,.55-3.84,0,0-1.27,2.75-3.33,3.15s-4.52,2-4.75,3.61c0,0,1.31-3.2-.26-5.22s.75-3.81,1.22-4.07c0,0-6.38,2.61-4.08,9.09s1.95,5.44,1.95,5.44Z"/><path class="cls-10" d="M188.55,21.28l-.49-.24-1.77-.77c-.06,0-.13,0-.2-.09h0A1.18,1.18,0,0,1,186,20l-.07,0-.18-.58c-.31-.78-.83-2.23-1.78-4.9C181.55,7.81,188.15,5,188.21,5l.31.64a3.55,3.55,0,0,0-1.54,2,1.84,1.84,0,0,0,.43,1.56,4.78,4.78,0,0,1,.82,3.41,8.19,8.19,0,0,1,3.84-1.93c1.86-.36,3.06-2.93,3.08-2.95l.31-.69.33.68a3.66,3.66,0,0,1,.18,2.48,6,6,0,0,0,.41-1l.38-1.39.31,1.41c.85,3.92-.9,7.06-5,9.08-3.24,1.58-3.46,2.5-3.46,2.51Zm-2.05-1.7,1.52.66c.31-.52,1.19-1.42,3.69-2.64s5-3.31,4.84-7A2.69,2.69,0,0,1,195,12l-.91.23.54-.78a4.56,4.56,0,0,0,.74-2.73,5.36,5.36,0,0,1-3.16,2.59A6.73,6.73,0,0,0,188,14a5.59,5.59,0,0,1-.23.71l-1.08,2.63.4-2.82a2.73,2.73,0,0,1,.24-.75c.27-1,.58-2.9-.44-4.21a2.55,2.55,0,0,1-.56-2.13,2.34,2.34,0,0,1,.17-.53,6.25,6.25,0,0,0-1.84,7.35C185.9,17.93,186.35,19.17,186.5,19.58Z"/><path class="cls-7" d="M191.8,16.93c-1.8-.42-4,.87-3.2.39,2.32-1.48,3.17-3,3-4.25,0,0-2,2.67-3.47,2.68a1.12,1.12,0,0,0-.5.16,3.25,3.25,0,0,0,0-.88,4.94,4.94,0,0,1,.77-3.45s-2,1-2.18,2.28c-.07.4-.15.93-.23,1.48a5.8,5.8,0,0,0-1.31-2.17,4.39,4.39,0,0,1-1-3.87c-.5.84-1.18,3.17-.45,4.46.6,1.05,2,7.21,3.67,7.08,0,0,1.27.66,2.93-1s3.53-1.25,5.65-4C195.52,15.78,193.6,17.34,191.8,16.93Z"/><path class="cls-10" d="M187.6,21.32a2.06,2.06,0,0,1-.73-.13c-1.31,0-2.25-2.51-3.26-5.52a14.65,14.65,0,0,0-.65-1.73c-.82-1.45-.09-3.89.46-4.82l1.15-1.94-.5,2.2a4,4,0,0,0,.93,3.53,4.68,4.68,0,0,1,.89,1.2c0-.11,0-.21.05-.31.24-1.41,2.28-2.49,2.37-2.53l1.31-.69-.86,1.21a4.58,4.58,0,0,0-.71,3.18,2.1,2.1,0,0,1,0,.43h.1c.91,0,2.44-1.56,3.19-2.53l.55-.72.09.9c.08.87-.2,2.12-1.77,3.51a4.37,4.37,0,0,1,1.65,0h0c1.59.37,3.4-1.06,3.42-1.07l2.3-1.86L195.8,16a8.22,8.22,0,0,1-3.58,2.72,6.36,6.36,0,0,0-2.1,1.33A3.54,3.54,0,0,1,187.6,21.32Zm-.59-.85.09.05c.05,0,1.08.51,2.51-1a6.93,6.93,0,0,1,2.32-1.48,9.8,9.8,0,0,0,1.67-.9,3.61,3.61,0,0,1-1.88.1,5.6,5.6,0,0,0-3,.44c-.15.06-.45.17-.6-.12s.12-.47.28-.57a6.44,6.44,0,0,0,2.71-2.8c-.77.83-2,1.88-2.94,1.88a.84.84,0,0,0-.34.12l-.58.3.08-.85a2.27,2.27,0,0,0,0-.58,4.78,4.78,0,0,1,.22-2.47,2.56,2.56,0,0,0-.93,1.3c-.07.39-.15.93-.23,1.47l-.2,1.33-.49-1.26a5.15,5.15,0,0,0-1.21-2,3.92,3.92,0,0,1-1.12-2,3.48,3.48,0,0,0,.19,2.18,14.17,14.17,0,0,1,.7,1.85c.55,1.64,1.69,5,2.6,5H187Z"/><path class="cls-10" d="M127.25,110.44l-.07-.88c.19,0,17.13-1.37,22.64-2.3l-7.26-4.15-.05-.16c-.13-.4-3.28-9.72-3.89-14.65l.88-.1c.55,4.48,3.37,13,3.8,14.3l8.95,5.13-1.07.26C147.46,108.83,128.08,110.38,127.25,110.44Z"/><path class="cls-10" d="M121.06,94.35A57,57,0,0,1,108.22,93l.2-.86a60.07,60.07,0,0,0,19.85,1l-5.34-4.47c-1.92-3.78-2-26-2-26.91h.88c0,.23.06,22.59,1.85,26.43l6.67,5.52-1,.16A54.74,54.74,0,0,1,121.06,94.35Z"/><path class="cls-10" d="M112.81,77.61h-1c-1.54,0-18.46-3.34-19.18-3.48l.17-.87c4.22.82,14.45,2.8,17.93,3.32l-5.16-6v-.15c0-.06-.45-6.41,1.43-19.73l.88.12c-1.71,12.12-1.48,18.4-1.43,19.4Z"/><path class="cls-10" d="M98.08,59l-1.15-.37c-4-1.29-9.4-4.09-14.21-6.57-1.93-1-3.78-1.95-5.39-2.73-.12.65-.23,1.31-.34,2l-.88-.14c.14-.86.3-1.71.45-2.55l.11-.57.52.25c1.75.83,3.78,1.88,5.94,3A134.14,134.14,0,0,0,96,57.33c-1.33-2.16-3.42-5.53-4.34-7.17L91.62,50l0-.15A93.08,93.08,0,0,1,94.37,37l.86.25a90.27,90.27,0,0,0-2.69,12.58c1,1.73,3.11,5.16,4.39,7.23Z"/><path class="cls-10" d="M158.55,111.65A147.17,147.17,0,0,1,79.81,23l-1.68.53-.27-.85,2.52-.8.14.43a146.27,146.27,0,0,0,78.4,88.58Z"/><path class="cls-7" d="M133,115.73c8.46-.72,12.59-7.57,12.61-7.52s-8.5-4.52-16.61-4.25a20.6,20.6,0,0,0-13.48,6C115.47,110,124.48,116.48,133,115.73Z"/><path class="cls-10" d="M131.64,116.24c-8.07,0-16.43-5.61-16.52-6.17l0-.18.11-.15A21,21,0,0,1,129,103.51c4.83-.15,10.65,1.33,16.55,4.18l.19.09,2.08.24-1.92.58a17.84,17.84,0,0,1-12.84,7.58h0C132.59,116.22,132.12,116.24,131.64,116.24Zm-15.41-6.3c1.73,1.18,9.36,6,16.76,5.35h0a16.84,16.84,0,0,0,12-6.9c-5.43-2.59-10.8-4-15.25-4H129A20.26,20.26,0,0,0,116.23,109.94Z"/><path class="cls-7" d="M145.64,108.21c-5.49,1.49-29,1.71-30.09,1.78"/><path class="cls-10" d="M145.64,108.21c-4.89,1.36-10,1.48-15,1.8-2.52.07-5,.15-7.55.15s-5-.07-7.55-.17c5-.48,10-.6,15.06-.87l7.53-.31A72.63,72.63,0,0,0,145.64,108.21Z"/><path class="cls-10" d="M123.29,106.8c1.91.85,3.78,1.52,5.66,2.46l.57.29L129,110c-1.25,1.07-2.38,2.32-3.66,3.47a15.45,15.45,0,0,1,3.1-4.11l.09.7A17.48,17.48,0,0,1,123.29,106.8Z"/><path class="cls-10" d="M119.88,107.47a28.2,28.2,0,0,1,3.58,2l.54.37-.53.34c-.9.58-1.77,1.28-2.77,1.86a8.24,8.24,0,0,1,2.29-2.56v.7A9,9,0,0,1,119.88,107.47Z"/><path class="cls-10" d="M133.24,106a40.54,40.54,0,0,1,6.38,2.69l.53.26-.4.43a38.06,38.06,0,0,1-4,3.84,37.86,37.86,0,0,1,3.37-4.44l.14.69A39.33,39.33,0,0,1,133.24,106Z"/><path class="cls-10" d="M127.1,105.56a61,61,0,0,1,7.81,3.61l.53.28-.41.42a57.51,57.51,0,0,1-5,4.55,58.55,58.55,0,0,1,4.43-5.18l.11.7A60.45,60.45,0,0,1,127.1,105.56Z"/><path class="cls-7" d="M109.83,100.77c8.49-.12,13.09-6.66,13.11-6.61s-8.16-5.11-16.27-5.41A20.56,20.56,0,0,0,92.8,93.82C92.71,93.84,101.25,100.92,109.83,100.77Z"/><path class="cls-10" d="M109.57,101.22c-8.41,0-17.15-6.76-17.21-7.35l0-.19.13-.15a20.87,20.87,0,0,1,14.22-5.23c4.77.18,10.52,2.07,16.21,5.32l.19.11,1.82.39-1.72.43a17.77,17.77,0,0,1-13.35,6.67h-.26Zm-16.1-7.41c1.63,1.29,8.75,6.52,16.09,6.52h.26a16.8,16.8,0,0,0,12.43-6c-5.5-3.11-11-4.92-15.6-5.09A20.32,20.32,0,0,0,93.47,93.81Z"/><path class="cls-7" d="M122.94,94.16c-5.58,1.09-29.06-.33-30.14-.34"/><path class="cls-10" d="M122.94,94.16c-5,1-10.06.77-15.08.73-2.52-.1-5-.2-7.54-.37s-5-.43-7.52-.7c5-.13,10.06.1,15.08.19l7.53.22C117.92,94.26,120.43,94.38,122.94,94.16Z"/><path class="cls-10" d="M100.74,91.18c1.84,1,3.67,1.78,5.47,2.85l.55.33-.5.37c-1.32,1-2.54,2.15-3.9,3.21a15.41,15.41,0,0,1,3.38-3.88l.05.7A17.36,17.36,0,0,1,100.74,91.18Z"/><path class="cls-10" d="M97.29,91.61a25.8,25.8,0,0,1,3.44,2.21l.51.4-.56.3c-.93.52-1.85,1.15-2.89,1.66a8.28,8.28,0,0,1,2.47-2.39l-.05.7A9,9,0,0,1,97.29,91.61Z"/><path class="cls-10" d="M110.72,91.08a40.07,40.07,0,0,1,6.17,3.12l.52.31-.43.4a37.64,37.64,0,0,1-4.23,3.55,37.38,37.38,0,0,1,3.68-4.2l.08.71A40.68,40.68,0,0,1,110.72,91.08Z"/><path class="cls-10" d="M104.63,90.21a62.35,62.35,0,0,1,7.54,4.14l.51.32-.44.39a57.56,57.56,0,0,1-5.31,4.19,57.41,57.41,0,0,1,4.77-4.85l.07.7A59.63,59.63,0,0,1,104.63,90.21Z"/><path class="cls-7" d="M91.12,81.21a17.55,17.55,0,0,0,13.82-4.95c-.07,0-7.46-6.08-15.47-7.37a20.54,20.54,0,0,0-14.39,3.32C75,72.22,82.59,80.3,91.12,81.21Z"/><path class="cls-10" d="M92.93,81.75a17.08,17.08,0,0,1-1.86-.1h0c-8.45-.9-16.45-8.85-16.44-9.44V72l.14-.14a21.15,21.15,0,0,1,14.76-3.43c4.7.76,10.17,3.34,15.42,7.28l.18.13,1.77.62-1.77.21A18,18,0,0,1,92.93,81.75ZM75.75,72.28c1.47,1.49,8,7.7,15.42,8.49h0a16.84,16.84,0,0,0,13.08-4.46c-5.08-3.78-10.34-6.26-14.85-7A20.35,20.35,0,0,0,75.75,72.28Z"/><path class="cls-7" d="M104.94,76.26c-5.66.4-28.79-3.91-29.86-4.05"/><path class="cls-10" d="M104.94,76.26c-5,.39-10.07-.47-15-1.13-2.48-.41-5-.82-7.44-1.3s-4.92-1-7.37-1.62c5,.49,10,1.34,15,2.05l7.44,1.14A72.06,72.06,0,0,0,104.94,76.26Z"/><path class="cls-10" d="M83.29,70.57c1.7,1.2,3.42,2.22,5.07,3.5l.51.39-.55.31c-1.43.81-2.78,1.82-4.26,2.71A15.54,15.54,0,0,1,87.89,74l0,.71A17.57,17.57,0,0,1,83.29,70.57Z"/><path class="cls-10" d="M79.81,70.57A28,28,0,0,1,83,73.18l.45.46-.58.24c-1,.39-2,.91-3.08,1.29a8.25,8.25,0,0,1,2.75-2.07l-.14.69A9.19,9.19,0,0,1,79.81,70.57Z"/><path class="cls-10" d="M93.2,71.7a39,39,0,0,1,5.74,3.87l.47.36-.47.34a37.12,37.12,0,0,1-4.63,3,36.75,36.75,0,0,1,4.16-3.7v.7A39,39,0,0,1,93.2,71.7Z"/><path class="cls-10" d="M87.26,70.09a59.78,59.78,0,0,1,7,5l.47.38-.49.33a56.52,56.52,0,0,1-5.78,3.5,56.12,56.12,0,0,1,5.33-4.22l0,.7A60.88,60.88,0,0,1,87.26,70.09Z"/><path class="cls-7" d="M74.56,55.59a17.55,17.55,0,0,0,14.66-.92c-.07,0-5.49-7.91-12.82-11.38a20.58,20.58,0,0,0-14.75-.79C61.56,42.48,66.62,52.35,74.56,55.59Z"/><path class="cls-10" d="M80.75,57.26A16.59,16.59,0,0,1,74.4,56c-7.88-3.21-13.35-13.06-13.18-13.63l.06-.18.18-.09a21.17,21.17,0,0,1,15.12.79c4.31,2,8.85,6,12.8,11.27l.14.18,1.58,1.09-1.81-.3A18.85,18.85,0,0,1,80.75,57.26ZM62.27,42.75c1,1.85,5.59,9.63,12.46,12.43h0a16.78,16.78,0,0,0,13.8-.66c-3.83-5-8.21-8.87-12.33-10.83A20.36,20.36,0,0,0,62.27,42.75Z"/><path class="cls-7" d="M89.22,54.67C83.66,53.48,62.64,42.92,61.65,42.5"/><path class="cls-10" d="M89.22,54.67c-5-1-9.55-3.25-14.15-5.26-2.27-1.08-4.55-2.16-6.78-3.31s-4.45-2.37-6.64-3.6c4.68,1.86,9.21,4,13.79,6.11l6.83,3.16A73.85,73.85,0,0,0,89.22,54.67Z"/><path class="cls-10" d="M70,43.2c1.31,1.62,2.67,3.08,3.91,4.77l.37.52-.61.14c-1.6.38-3.18,1-4.84,1.42a15.29,15.29,0,0,1,4.63-2.24l-.23.66A17.43,17.43,0,0,1,70,43.2Z"/><path class="cls-10" d="M66.65,42.23a27.59,27.59,0,0,1,2.29,3.39l.31.56-.63.06c-1.06.11-2.15.33-3.31.39a8.26,8.26,0,0,1,3.21-1.23L68.2,46A9.08,9.08,0,0,1,66.65,42.23Z"/><path class="cls-10" d="M79.2,47a39.76,39.76,0,0,1,4.45,5.31l.35.48-.55.2a37.3,37.3,0,0,1-5.29,1.59,37.44,37.44,0,0,1,5-2.4l-.19.68A39.65,39.65,0,0,1,79.2,47Z"/><path class="cls-10" d="M73.94,43.84a59.5,59.5,0,0,1,5.3,6.77l.35.5-.56.18a55.61,55.61,0,0,1-6.54,1.76,57.14,57.14,0,0,1,6.31-2.58l-.22.67A60.74,60.74,0,0,1,73.94,43.84Z"/><path class="cls-7" d="M73.17,21.3A17.56,17.56,0,0,0,83.62,31.61c0-.06,2.24-9.36-.06-17.14A20.61,20.61,0,0,0,74.32,2.94C74.27,2.87,70.29,13.22,73.17,21.3Z"/><path class="cls-10" d="M84.32,33.6l-1-1.63A17.79,17.79,0,0,1,72.75,21.45h0c-2.84-8,.83-18.65,1.38-18.91l.16-.08.19.07A21.13,21.13,0,0,1,84,14.34c1.36,4.57,1.4,10.63.13,17.05l0,.22Zm-9.78-30c-.71,2-3.46,10.55-1,17.57h0A16.82,16.82,0,0,0,83.29,31c1.19-6.21,1.14-12-.16-16.41A20.38,20.38,0,0,0,74.54,3.58Z"/><path class="cls-7" d="M83.62,31.61c-2.81-4.94-9-27.64-9.3-28.67"/><path class="cls-10" d="M83.62,31.61c-2.54-4.39-3.94-9.29-5.51-14-.71-2.42-1.42-4.83-2-7.27s-1.2-4.89-1.74-7.35C76.05,7.68,77.44,12.51,79,17.3l2.19,7.2C81.93,26.89,82.61,29.31,83.62,31.61Z"/><path class="cls-10" d="M79.36,9.63c-.34,2-.52,4-1,6.09l-.13.63L77.75,16c-1.35-.94-2.85-1.72-4.29-2.67a15.46,15.46,0,0,1,4.76,2l-.65.27A17.25,17.25,0,0,1,79.36,9.63Z"/><path class="cls-10" d="M77.85,6.49a26.82,26.82,0,0,1-1,4l-.21.6-.47-.42c-.79-.72-1.68-1.39-2.5-2.21A8.18,8.18,0,0,1,76.73,10l-.68.18A9.08,9.08,0,0,1,77.85,6.49Z"/><path class="cls-10" d="M82.64,19.05a39.54,39.54,0,0,1-1,6.85l-.13.58L81,26.21a38.59,38.59,0,0,1-4.71-2.88,37,37,0,0,1,5.14,2.14l-.64.31A40.56,40.56,0,0,1,82.64,19.05Z"/><path class="cls-10" d="M81.51,13A60.47,60.47,0,0,1,80,21.47l-.14.58-.51-.29a57.81,57.81,0,0,1-5.67-3.69,56.66,56.66,0,0,1,6.13,3l-.65.29A60.49,60.49,0,0,1,81.51,13Z"/><path class="cls-7" d="M132.76,86.38c1.29,7.65,9.12,13.23,9.11,13.15s3.74-6.88,2.12-14.15-7.43-12.6-7.43-12.66S131.46,78.81,132.76,86.38Z"/><path class="cls-10" d="M142.05,100l-.23,0h0c-.48,0-8.22-6-9.49-13.51h0c-1.1-6.42,2.28-11.83,3.79-13.87L136,70.17,137,72.55c2.21,2.26,6.11,6.93,7.41,12.74,1.69,7.62-2.18,14.49-2.22,14.54Zm-5.44-26.59c-1.52,2.13-4.41,7.1-3.42,12.9h0c1.1,6.51,7,11.41,8.53,12.56.74-1.52,3.2-7.27,1.84-13.39C142.32,79.92,138.45,75.34,136.61,73.41Z"/><path class="cls-10" d="M140.44,79.94c-.66,1.53-1.46,2.94-2.11,4.41l-.27.6-.45-.49c-1.17-1.32-2.23-2.65-3.27-4.08a17.39,17.39,0,0,1,3.91,3.48l-.71.11A14.47,14.47,0,0,1,140.44,79.94Z"/><path class="cls-10" d="M139.09,76.56c-.38,1.13-.91,2.11-1.35,3.13l-.26.61-.45-.51a18.49,18.49,0,0,1-2.18-2.92,9.58,9.58,0,0,1,2.82,2.33l-.71.11A8.26,8.26,0,0,1,139.09,76.56Z"/><path class="cls-10" d="M142.57,88.81c-.67,1.77-1.46,3.43-2.1,5.15l-.23.61-.47-.46a59.54,59.54,0,0,1-4.23-4.61,24.79,24.79,0,0,1,4.82,4l-.7.15A18.23,18.23,0,0,1,142.57,88.81Z"/><path class="cls-10" d="M142.14,83.45c-.88,2.13-1.91,4.14-2.75,6.22l-.25.61-.46-.47c-1.74-1.81-3.32-3.7-4.88-5.67a38.94,38.94,0,0,1,5.5,5.06l-.71.13A26.46,26.46,0,0,1,142.14,83.45Z"/><path class="cls-10" d="M141.46,99.69a100.42,100.42,0,0,1-5.34-26.95l.89,0a99,99,0,0,0,5.28,26.68Z"/><path class="cls-7" d="M115.75,63.51c-.29,7.75,6.24,14.8,6.25,14.72s5.06-6,5-13.41S122.25,51,122.26,50.9,116,55.83,115.75,63.51Z"/><path class="cls-10" d="M122.1,78.72l-.23-.06c-.44,0-6.85-7.55-6.56-15.17.23-6.52,4.65-11.13,6.54-12.81l.41-2.32.48,2.48c1.7,2.67,4.57,8,4.66,14a22.61,22.61,0,0,1-5.13,13.78Zm.06-27.13c-1.92,1.78-5.76,6-6,11.93h0c-.25,6.61,4.54,12.6,5.79,14,1-1.35,4.62-6.49,4.53-12.74C126.43,59.3,123.83,54.26,122.16,51.59Z"/><path class="cls-10" d="M124.58,58.76c-1,1.37-2,2.58-3,3.89l-.39.54-.33-.58A49.79,49.79,0,0,1,118.52,58a17.47,17.47,0,0,1,3.13,4.21l-.72,0A14.24,14.24,0,0,1,124.58,58.76Z"/><path class="cls-10" d="M124,55.18c-.6,1-1.32,1.88-2,2.79l-.39.55-.34-.59a18.76,18.76,0,0,1-1.53-3.31A9.6,9.6,0,0,1,122,57.48l-.72,0A8.25,8.25,0,0,1,124,55.18Z"/><path class="cls-10" d="M124.86,67.88c-1,1.59-2.13,3.06-3.1,4.61l-.35.55L121,72.5a58,58,0,0,1-3.2-5.37A24.65,24.65,0,0,1,121.75,72H121A17.92,17.92,0,0,1,124.86,67.88Z"/><path class="cls-10" d="M125.53,62.55c-1.29,1.9-2.71,3.66-4,5.53l-.36.55-.36-.57a74.2,74.2,0,0,1-3.62-6.53,38.26,38.26,0,0,1,4.35,6.07l-.72,0A26.25,26.25,0,0,1,125.53,62.55Z"/><path class="cls-10" d="M121.57,78.31a99.57,99.57,0,0,1,.25-27.47l.88.12a99.24,99.24,0,0,0-.26,27.2Z"/><path class="cls-7" d="M102.1,45.48C100.59,53.09,105.93,61.07,106,61s5.93-5.1,7-12.47-2.47-14.42-2.46-14.48S103.57,37.94,102.1,45.48Z"/><path class="cls-10" d="M106,61.5l-.21-.09c-.44-.11-5.59-8.51-4.11-16h0c1.25-6.4,6.34-10.26,8.48-11.63l.76-2,.09,2.33c1.26,2.9,3.25,8.65,2.41,14.52-1.12,7.72-7.17,12.77-7.23,12.8Zm4.32-26.79c-2.18,1.46-6.64,5.08-7.77,10.85h0C101.25,52,105,58.71,106,60.34c1.24-1.17,5.58-5.67,6.48-11.88C113.31,43,111.53,37.61,110.3,34.71Z"/><path class="cls-10" d="M111.56,42.18c-1.16,1.19-2.4,2.23-3.53,3.37l-.47.47-.24-.62a50.7,50.7,0,0,1-1.61-5,17.48,17.48,0,0,1,2.42,4.65l-.7-.15A14.23,14.23,0,0,1,111.56,42.18Z"/><path class="cls-10" d="M111.5,38.54c-.75.92-1.59,1.65-2.37,2.44l-.46.49-.24-.64a18,18,0,0,1-1-3.5,9.63,9.63,0,0,1,1.81,3.18l-.71-.15A8.28,8.28,0,0,1,111.5,38.54Z"/><path class="cls-10" d="M110.41,51.23c-1.25,1.41-2.58,2.68-3.79,4.06l-.43.5-.28-.6a60.61,60.61,0,0,1-2.32-5.81,24.71,24.71,0,0,1,3.1,5.44l-.71-.11A18.17,18.17,0,0,1,110.41,51.23Z"/><path class="cls-10" d="M111.91,46.07c-1.58,1.67-3.25,3.19-4.78,4.84l-.45.48-.26-.61a72.78,72.78,0,0,1-2.55-7,39.36,39.36,0,0,1,3.35,6.68l-.72-.13A26.32,26.32,0,0,1,111.91,46.07Z"/><path class="cls-10" d="M105.51,61a100.33,100.33,0,0,1,4.57-27.09l.85.26A99.34,99.34,0,0,0,106.4,61Z"/><path class="cls-7" d="M90.42,27c-1.94,7.51,2.91,15.8,2.94,15.73s6.22-4.75,7.73-12-1.62-14.55-1.6-14.6S92.34,19.56,90.42,27Z"/><path class="cls-10" d="M93.34,43.22l-.2-.11c-.42-.12-5.07-8.8-3.14-16.22,1.62-6.3,6.92-9.86,9.13-11.1l.9-2.39L99.94,16l0,.09c1.1,3,2.75,8.83,1.55,14.66a22.52,22.52,0,0,1-8,12.35Zm5.91-26.48c-2.26,1.33-6.93,4.68-8.4,10.37h0c-1.65,6.38,1.73,13.27,2.64,15,1.3-1.09,5.9-5.34,7.16-11.47C101.8,25,100.14,19.25,99.25,16.74Z"/><path class="cls-10" d="M100.07,24.26c-1.23,1.13-2.53,2.09-3.73,3.16l-.49.45-.2-.64a48.18,48.18,0,0,1-1.32-5.06A17.49,17.49,0,0,1,96.47,27l-.69-.19A14.45,14.45,0,0,1,100.07,24.26Z"/><path class="cls-10" d="M100.22,20.63c-.8.88-1.69,1.55-2.5,2.3l-.5.46-.2-.65a18.54,18.54,0,0,1-.79-3.56,9.58,9.58,0,0,1,1.62,3.28l-.7-.19A8.37,8.37,0,0,1,100.22,20.63Z"/><path class="cls-10" d="M98.39,33.23c-1.34,1.34-2.74,2.53-4,3.84l-.46.46-.24-.61a55.83,55.83,0,0,1-2-5.94,24.89,24.89,0,0,1,2.77,5.62l-.7-.15A18.13,18.13,0,0,1,98.39,33.23Z"/><path class="cls-10" d="M100.19,28.17c-1.68,1.58-3.44,3-5.06,4.55l-.48.45-.22-.62a74.45,74.45,0,0,1-2.13-7.16,39.37,39.37,0,0,1,2.94,6.86l-.7-.17A26.14,26.14,0,0,1,100.19,28.17Z"/><path class="cls-10" d="M93.81,42.75l-.89,0a100.24,100.24,0,0,1,6.16-26.77l.83.31A99.2,99.2,0,0,0,93.81,42.75Z"/><path class="cls-6" d="M94.42,112.24C55,101.94,33.76,75,33.55,74.72l-.83.64c.21.27,21.67,27.5,61.44,37.89Z"/><path class="cls-6" d="M57.08,95.69c-3.64,1.51-19.84,1.56-20,1.56v1c.67,0,16.57,0,20.4-1.63Z"/><path class="cls-6" d="M66.68,101a64.17,64.17,0,0,1-18.31.72l-.13,1A65.08,65.08,0,0,0,66.89,102Z"/><path class="cls-6" d="M83.41,108.9a71.29,71.29,0,0,1-25.23,2.22l-.13,1a72.59,72.59,0,0,0,25.63-2.25Z"/><rect class="cls-6" x="68.5" y="102.62" width="1.05" height="11.59" transform="translate(-59.37 114.06) rotate(-60.03)"/><path class="cls-6" d="M53.38,96.48a73,73,0,0,1-19.16-5.56l-.45.94a73.73,73.73,0,0,0,19.47,5.65Z"/><path class="cls-6" d="M43.32,75.29l-1,.32c.18.56,4.52,13.77,8.33,16.53l.61-.84C47.73,88.73,43.37,75.42,43.32,75.29Z"/><path class="cls-6" d="M68,93.17c-2.29-1.65-12.67-3.73-13.11-3.81l-.2,1c2.94.59,11,2.38,12.7,3.63Z"/><path class="cls-6" d="M61,81.51l-.86.59c.1.15,10.63,15.73,11.34,22.47l1-.11C71.73,97.46,61.39,82.16,61,81.51Z"/><rect class="cls-6" x="81.72" y="98.97" width="1.04" height="13.81" transform="translate(-51.07 91.68) rotate(-46.08)"/><path class="cls-6" d="M79,93.67l-.81.67c.1.11,9.9,12,10.39,17l1-.1C89.11,106,79.42,94.17,79,93.67Z"/><path class="cls-7" d="M36.23,78a4.3,4.3,0,1,0-6.08.11A4.3,4.3,0,0,0,36.23,78Z"/><path class="cls-6" d="M33.13,79.63a4.59,4.59,0,1,1,3.31-1.41A4.56,4.56,0,0,1,33.13,79.63Zm0-8.6a4,4,0,0,0-2.89,1.23A4,4,0,1,0,33.14,71Z"/><path class="cls-7" d="M34.05,94.36a3,3,0,1,0-3-2.91A3,3,0,0,0,34.05,94.36Z"/><path class="cls-6" d="M34,94.65a3.26,3.26,0,0,1-2.35-5.52,3.31,3.31,0,0,1,2.29-1H34a3.26,3.26,0,0,1,.06,6.52H34Zm0-5.93h-.05a2.73,2.73,0,0,0-1.88.82A2.68,2.68,0,0,0,34,94.07h0a2.66,2.66,0,0,0,2.62-2.72,2.61,2.61,0,0,0-.82-1.87A2.67,2.67,0,0,0,34,88.72Z"/><path class="cls-7" d="M42.88,78.41a3,3,0,1,0-3-2.91A3,3,0,0,0,42.88,78.41Z"/><path class="cls-6" d="M42.83,78.71a3.26,3.26,0,0,1-3.26-3.2,3.26,3.26,0,0,1,3.2-3.32h.06a3.26,3.26,0,0,1,.06,6.52h-.06Zm0-5.93h0a2.66,2.66,0,0,0-1.88.81,2.67,2.67,0,0,0,1.93,4.53h.05a2.69,2.69,0,0,0,1.87-.82,2.64,2.64,0,0,0,.75-1.9,2.71,2.71,0,0,0-.82-1.88A2.66,2.66,0,0,0,42.83,72.78Z"/><path class="cls-7" d="M37.13,100.73a3,3,0,1,0-3-2.91A3,3,0,0,0,37.13,100.73Z"/><path class="cls-6" d="M37.08,101a3.23,3.23,0,0,1-2.26-.91A3.26,3.26,0,0,1,37,94.51h.06a3.26,3.26,0,0,1,.06,6.52h-.06Zm0-5.93h0a2.67,2.67,0,0,0-2.62,2.72,2.66,2.66,0,0,0,2.67,2.62h.05A2.61,2.61,0,0,0,39,99.62a2.64,2.64,0,0,0,.75-1.9A2.67,2.67,0,0,0,37.08,95.1Z"/><path class="cls-7" d="M48.36,105.16a3,3,0,1,0-3-2.91A3,3,0,0,0,48.36,105.16Z"/><path class="cls-6" d="M48.3,105.45A3.26,3.26,0,0,1,46,99.93a3.26,3.26,0,0,1,2.28-1h.07a3.26,3.26,0,0,1,3.25,3.2,3.26,3.26,0,0,1-3.19,3.32H48.3Zm0-5.93h-.05a2.71,2.71,0,0,0-1.88.82,2.63,2.63,0,0,0-.74,1.9,2.65,2.65,0,0,0,2.72,2.62h0a2.64,2.64,0,0,0,1.87-.81,2.67,2.67,0,0,0-1.92-4.53Z"/><path class="cls-7" d="M60.57,84.77a3,3,0,1,0-3-2.91A3,3,0,0,0,60.57,84.77Z"/><path class="cls-6" d="M60.52,85.06a3.26,3.26,0,0,1-.06-6.51h.06a3.27,3.27,0,0,1,3.26,3.19,3.3,3.3,0,0,1-.91,2.33,3.25,3.25,0,0,1-2.29,1h-.06Zm0-5.93h-.05a2.68,2.68,0,0,0,.05,5.35h0a2.68,2.68,0,0,0,0-5.35Z"/><path class="cls-7" d="M78.66,97a3,3,0,1,0-3-2.91A3,3,0,0,0,78.66,97Z"/><path class="cls-6" d="M78.61,97.33a3.32,3.32,0,0,1-2.4-5.64,3.3,3.3,0,0,1,2.34-1,3.33,3.33,0,0,1,.12,6.66Zm0-5.93h0a2.59,2.59,0,0,0-1.82.8A2.57,2.57,0,0,0,76,94.05a2.6,2.6,0,0,0,2.6,2.55h0a2.6,2.6,0,0,0,0-5.2Z"/><path class="cls-7" d="M58.17,114.6a3,3,0,1,0-3-2.91A3,3,0,0,0,58.17,114.6Z"/><path class="cls-6" d="M58.11,115a3.33,3.33,0,1,1,3.34-3.4,3.3,3.3,0,0,1-.93,2.38,3.34,3.34,0,0,1-2.34,1h-.07Zm0-5.93h-.06a2.6,2.6,0,0,0-2.54,2.65,2.56,2.56,0,0,0,.79,1.82,2.72,2.72,0,0,0,1.86.72h0a2.58,2.58,0,0,0,2.54-2.64A2.59,2.59,0,0,0,58.12,109Z"/><path class="cls-7" d="M64,107.57a2.05,2.05,0,1,0-2.08-2A2,2,0,0,0,64,107.57Z"/><path class="cls-6" d="M64,107.86a2.34,2.34,0,0,1-1.62-.65,2.29,2.29,0,0,1-.71-1.65,2.25,2.25,0,0,1,.65-1.66,2.28,2.28,0,0,1,1.64-.72,2.34,2.34,0,1,1,.09,4.68Zm0-4.09h0a1.74,1.74,0,0,0-1.23.53,1.76,1.76,0,0,0-.49,1.25A1.76,1.76,0,0,0,64,107.27h0a1.75,1.75,0,0,0,1.72-1.78A1.76,1.76,0,0,0,64,103.77Z"/><path class="cls-7" d="M77.31,103.14a2.05,2.05,0,1,0-2.09-2A2.05,2.05,0,0,0,77.31,103.14Z"/><path class="cls-6" d="M77.27,103.5a2.39,2.39,0,0,1-2.41-2.36,2.34,2.34,0,0,1,.67-1.72,2.41,2.41,0,1,1,1.79,4.08Zm0-4.09h0a1.68,1.68,0,0,0-1.14,2.89,1.85,1.85,0,0,0,1.2.47,1.68,1.68,0,0,0,0-3.36Z"/><path class="cls-7" d="M54.78,91.92a2.05,2.05,0,1,0-2.09-2A2.05,2.05,0,0,0,54.78,91.92Z"/><path class="cls-6" d="M54.74,92.21a2.34,2.34,0,0,1-.05-4.68,2.46,2.46,0,0,1,1.67.65,2.34,2.34,0,0,1-1.58,4Zm0-4.1h0A1.77,1.77,0,0,0,53,89.9a1.75,1.75,0,0,0,3,1.18,1.7,1.7,0,0,0,.49-1.24,1.76,1.76,0,0,0-1.75-1.73Z"/><path class="cls-6" d="M148.73,112.24c39.41-10.3,60.66-37.25,60.87-37.52l.83.64c-.22.27-21.67,27.5-61.44,37.89Z"/><path class="cls-6" d="M186.07,95.69c3.64,1.51,19.84,1.56,20,1.56v1c-.68,0-16.57,0-20.4-1.63Z"/><path class="cls-6" d="M176.47,101a64.1,64.1,0,0,0,18.3.72l.14,1a65.08,65.08,0,0,1-18.65-.73Z"/><path class="cls-6" d="M159.74,108.9A71.24,71.24,0,0,0,185,111.12l.14,1a72.65,72.65,0,0,1-25.64-2.25Z"/><rect class="cls-6" x="168.33" y="107.89" width="11.59" height="1.05" transform="translate(-30.87 101.46) rotate(-29.97)"/><path class="cls-6" d="M189.76,96.48a73.13,73.13,0,0,0,19.17-5.56l.45.94a73.73,73.73,0,0,1-19.47,5.65Z"/><path class="cls-6" d="M199.82,75.29l1,.32c-.19.56-4.53,13.77-8.33,16.53l-.62-.84C195.41,88.73,199.78,75.42,199.82,75.29Z"/><path class="cls-6" d="M175.2,93.17c2.29-1.65,12.67-3.73,13.11-3.81l.2,1c-2.94.59-10.95,2.38-12.7,3.63Z"/><path class="cls-6" d="M182.2,81.51l.86.59c-.1.15-10.63,15.73-11.34,22.47l-1-.11C171.42,97.46,181.76,82.16,182.2,81.51Z"/><rect class="cls-6" x="154" y="105.36" width="13.81" height="1.04" transform="translate(-28.44 141.22) rotate(-43.92)"/><path class="cls-6" d="M164.14,93.67l.8.67c-.1.11-9.89,12-10.38,17l-1-.1C154,106,163.72,94.17,164.14,93.67Z"/><path class="cls-7" d="M206.91,78a4.3,4.3,0,1,1,6.09.11A4.31,4.31,0,0,1,206.91,78Z"/><path class="cls-6" d="M210,79.63a4.59,4.59,0,1,1,3.19-1.28A4.57,4.57,0,0,1,210,79.63Zm0-8.6a4,4,0,1,0,2.89,1.23A4,4,0,0,0,210,71Z"/><path class="cls-7" d="M209.1,94.36a3,3,0,1,1,3-2.91A3,3,0,0,1,209.1,94.36Z"/><path class="cls-6" d="M209.15,94.65h-.06a3.26,3.26,0,0,1-3.19-3.32,3.18,3.18,0,0,1,1-2.28,3.23,3.23,0,0,1,2.25-.92h.07a3.26,3.26,0,0,1,2.28,1,3.2,3.2,0,0,1,.91,2.32A3.26,3.26,0,0,1,209.15,94.65Zm0-.59h0a2.68,2.68,0,0,0,2.68-2.63,2.64,2.64,0,0,0-.75-1.9,2.69,2.69,0,0,0-1.87-.82h-.06a2.69,2.69,0,0,0-1.85.75,2.67,2.67,0,0,0,1.81,4.59Z"/><path class="cls-7" d="M200.26,78.41a3,3,0,1,1,3-2.91A3,3,0,0,1,200.26,78.41Z"/><path class="cls-6" d="M200.32,78.71h-.06a3.26,3.26,0,0,1-2.2-5.61,3.23,3.23,0,0,1,2.26-.91h.06a3.26,3.26,0,0,1,3.2,3.32A3.27,3.27,0,0,1,200.32,78.71Zm0-5.93a2.67,2.67,0,0,0-1.92,4.52,2.69,2.69,0,0,0,1.87.82h0a2.67,2.67,0,0,0,.05-5.34Z"/><path class="cls-7" d="M206,100.73a3,3,0,1,1,3-2.91A3,3,0,0,1,206,100.73Z"/><path class="cls-6" d="M206.07,101H206a3.25,3.25,0,0,1-2.29-1,3.26,3.26,0,1,1,4.61.09A3.23,3.23,0,0,1,206.07,101Zm0-.59h0a2.68,2.68,0,0,0,2.67-2.62,2.68,2.68,0,0,0-2.62-2.72h-.05a2.67,2.67,0,0,0-2.67,2.62,2.64,2.64,0,0,0,.75,1.9,2.61,2.61,0,0,0,1.87.82Z"/><path class="cls-7" d="M194.78,105.16a3,3,0,1,1,3-2.91A3,3,0,0,1,194.78,105.16Z"/><path class="cls-6" d="M194.84,105.45h-.06a3.22,3.22,0,0,1-2.29-1,3.26,3.26,0,0,1,2.35-5.52h.06a3.26,3.26,0,0,1,3.2,3.33,3.26,3.26,0,0,1-3.26,3.19Zm0-5.93a2.67,2.67,0,0,0-.05,5.34h.05a2.68,2.68,0,0,0,1.93-4.53,2.73,2.73,0,0,0-1.88-.82Z"/><path class="cls-7" d="M182.57,84.77a3,3,0,1,1,3-2.91A3,3,0,0,1,182.57,84.77Z"/><path class="cls-6" d="M182.63,85.06h-.06a3.26,3.26,0,0,1,.06-6.51h.06a3.26,3.26,0,0,1,3.2,3.32,3.26,3.26,0,0,1-3.26,3.19Zm0-.58h0a2.68,2.68,0,0,0,.05-5.35h-.05a2.68,2.68,0,0,0,0,5.35Z"/><path class="cls-7" d="M164.48,97a3,3,0,1,1,3-2.91A3,3,0,0,1,164.48,97Z"/><path class="cls-6" d="M164.54,97.33h-.06a3.33,3.33,0,0,1,.06-6.66h.06a3.33,3.33,0,0,1-.06,6.66Zm0-5.93a2.6,2.6,0,0,0,0,5.2h0a2.6,2.6,0,0,0,.05-5.2Z"/><path class="cls-7" d="M185,114.6a3,3,0,1,1,3-2.91A3,3,0,0,1,185,114.6Z"/><path class="cls-6" d="M185,115H185a3.34,3.34,0,0,1-2.34-1,3.33,3.33,0,0,1,2.46-5.64,3.32,3.32,0,0,1,2.25,5.73A3.3,3.3,0,0,1,185,115Zm0-5.93a2.6,2.6,0,0,0-1.87,4.4,2.56,2.56,0,0,0,1.82.79h0a2.61,2.61,0,0,0,1.85-.72,2.53,2.53,0,0,0,.8-1.82,2.6,2.6,0,0,0-2.55-2.65Z"/><path class="cls-7" d="M179.1,107.57a2.05,2.05,0,1,1,2.09-2A2.05,2.05,0,0,1,179.1,107.57Z"/><path class="cls-6" d="M179.14,107.86h0a2.35,2.35,0,0,1-2.3-2.39,2.34,2.34,0,0,1,2.34-2.29h.05a2.34,2.34,0,0,1,2.29,2.38,2.32,2.32,0,0,1-2.34,2.3Zm0-4.09a1.75,1.75,0,0,0,0,3.5,1.71,1.71,0,0,0,1.25-.49,1.74,1.74,0,0,0,0-2.48,1.72,1.72,0,0,0-1.23-.53Z"/><path class="cls-7" d="M165.84,103.14a2.05,2.05,0,1,1,2.09-2A2.05,2.05,0,0,1,165.84,103.14Z"/><path class="cls-6" d="M165.88,103.5h0a2.42,2.42,0,1,1,1.79-4.08,2.41,2.41,0,0,1-1.74,4.08Zm0-4.09a1.68,1.68,0,0,0,0,3.36,1.8,1.8,0,0,0,1.2-.47,1.65,1.65,0,0,0,.52-1.18,1.67,1.67,0,0,0-1.65-1.71Z"/><path class="cls-7" d="M188.37,91.92a2.05,2.05,0,1,1,2.09-2A2.05,2.05,0,0,1,188.37,91.92Z"/><path class="cls-6" d="M188.41,92.21h0a2.35,2.35,0,0,1-1.59-4,2.35,2.35,0,0,1,1.63-.65h0a2.34,2.34,0,0,1,0,4.68Zm0-4.1a1.74,1.74,0,0,0-1.22.5,1.72,1.72,0,0,0-.53,1.23,1.7,1.7,0,0,0,.49,1.24,1.73,1.73,0,0,0,1.23.54h0a1.76,1.76,0,0,0,0-3.51Z"/><path class="cls-7" d="M120.39,50.72c-3.25,5-5.62,10.75-5.82,16.72s2,12.18,6.52,16,11.61,4.88,16.67,1.71,7.21-9.7,6.78-15.66-1.35-12-3.86-17.41c-1.27-2.76-9.31-14-9.31-14S122.05,48.32,120.39,50.72Z"/><path class="cls-4" d="M121.94,84.78a14.69,14.69,0,0,1-1.18-.9c-4.42-3.75-6.93-9.9-6.7-16.46.18-5.52,2.17-11.23,5.9-17h0c1.66-2.41,10.64-12.24,11-12.66l.42-.47.37.52c.33.46,8.08,11.32,9.36,14.09,2.77,6,3.54,12.56,3.9,17.6.49,6.82-2.26,13.15-7,16.13S126.81,88.16,121.94,84.78ZM120.81,51c-3.62,5.59-5.55,11.13-5.73,16.46-.21,6.24,2.16,12.09,6.34,15.64,4.63,3.91,11.38,4.61,16.07,1.67,4.44-2.78,7-8.74,6.54-15.19-.35-5-1.11-11.38-3.81-17.24-1.09-2.35-7.31-11.18-8.9-13.41C129.48,41,122.25,48.94,120.81,51Z"/><path class="cls-7" d="M134.59,65.4a42.66,42.66,0,0,0-5.89,16.26A26.21,26.21,0,0,0,132,98.43c2,3.27,5.52,6.19,9.29,5.52,2.93-.52,5.08-3,6.54-5.65,4.13-7.38,4.66-16.18,4.77-24.64.1-7.83-.08-15.86,2.3-23.42C156,46.87,156,44.63,152.18,47a49.75,49.75,0,0,0-9.33,7.53A56.75,56.75,0,0,0,134.59,65.4Z"/><path class="cls-4" d="M135.49,102.94a14.61,14.61,0,0,1-3.94-4.24,26.64,26.64,0,0,1-3.35-17.1,43.19,43.19,0,0,1,6-16.46h0a57.2,57.2,0,0,1,8.33-11,49.74,49.74,0,0,1,9.43-7.61c1.73-1.07,2.86-1.32,3.55-.79s.75,2-.08,4.62c-2.12,6.75-2.19,14-2.26,21l0,2.31c-.1,8-.57,17.26-4.84,24.88-1.9,3.4-4.28,5.44-6.89,5.9A7.86,7.86,0,0,1,135.49,102.94ZM135,65.66a42.11,42.11,0,0,0-5.82,16.06,25.61,25.61,0,0,0,3.21,16.44c1.75,2.85,5.1,5.94,8.77,5.29,2.9-.52,5-3.22,6.18-5.4,4.15-7.41,4.6-16.48,4.71-24.4l0-2.3c.07-7.06.13-14.37,2.3-21.26.9-2.86.56-3.41.43-3.51s-.51-.31-2.38.85a48.81,48.81,0,0,0-9.23,7.45A56,56,0,0,0,135,65.66Z"/><path class="cls-7" d="M159.46,81a36.6,36.6,0,0,0-12.61,7.92,22.5,22.5,0,0,0-6.65,13.13c-.37,3.28.47,7.12,3.38,8.67,2.27,1.2,5.07.61,7.43-.38,6.72-2.82,11.74-8.52,16.29-14.2,4.22-5.27,8.35-10.82,14-14.69,2.5-1.73,3.73-3.22-.12-3.64a42.93,42.93,0,0,0-10.32.17A48.57,48.57,0,0,0,159.46,81Z"/><path class="cls-4" d="M142.72,110.79c-2.73-1.9-3.38-5.71-3-8.8a23,23,0,0,1,6.79-13.43,37.36,37.36,0,0,1,12.79-8h0a49,49,0,0,1,11.49-3,43.15,43.15,0,0,1,10.45-.18c1.79.2,2.68.63,2.88,1.4s-.52,1.78-2.53,3.17c-5,3.45-8.88,8.32-12.62,13l-1.24,1.56c-4.33,5.41-9.54,11.43-16.49,14.35-3.11,1.31-5.83,1.43-7.87.36C143.13,111.05,142.92,110.93,142.72,110.79Zm16.92-29.32a36.3,36.3,0,0,0-12.43,7.81,22,22,0,0,0-6.51,12.82c-.31,2.84.31,6.68,3.12,8.16,2.22,1.18,5,.44,7-.39,6.72-2.83,11.83-8.74,16.08-14.05l1.24-1.55c3.79-4.77,7.71-9.7,12.84-13.24,2.14-1.48,2.14-2,2.12-2.08s-.13-.42-2-.63a42.11,42.11,0,0,0-10.2.17,48.65,48.65,0,0,0-11.25,3Z"/><path class="cls-7" d="M96.51,64.89A34.89,34.89,0,0,0,98,78.16c1.54,4.92,4.54,9.8,9.34,11.69,5.64,2.23,12.45-.52,16-5.47s4.06-11.53,2.65-17.43a29.79,29.79,0,0,0-3.29-8.18,38.28,38.28,0,0,0-8.09-9.4,53.37,53.37,0,0,0-11.7-7.68c-2.68-1.28-4.56-2.48-3.86,1.06a18.37,18.37,0,0,1,.07,9.2A89.17,89.17,0,0,0,96.51,64.89Z"/><path class="cls-4" d="M104.58,89c-4.09-2.85-6.16-7.71-7.08-10.65A35.68,35.68,0,0,1,96,64.85h0A68.66,68.66,0,0,1,98,54.1c.18-.75.37-1.51.55-2.27a18.1,18.1,0,0,0-.08-9c-.29-1.46-.18-2.29.36-2.71.77-.59,2,0,3.61.8l.61.29A53.65,53.65,0,0,1,114.88,49a38.8,38.8,0,0,1,8.2,9.53,30.38,30.38,0,0,1,3.35,8.32C128,73.49,127,80,123.7,84.68c-3.85,5.43-11,7.86-16.56,5.65A13.3,13.3,0,0,1,104.58,89Zm5.25-42.61a52.17,52.17,0,0,0-7.2-4.19l-.62-.3c-.9-.45-2.27-1.12-2.54-.91,0,0-.27.23,0,1.7.73,3.69.91,5.82.06,9.41-.18.76-.36,1.53-.55,2.28a69.87,69.87,0,0,0-2,10.59h0A34.42,34.42,0,0,0,98.48,78c1,3.33,3.6,9.23,9,11.38,5.16,2,11.76-.24,15.35-5.29,3.15-4.45,4.08-10.65,2.57-17a29.42,29.42,0,0,0-3.24-8,38.15,38.15,0,0,0-8-9.28A55.31,55.31,0,0,0,109.83,46.35Z"/><path class="cls-7" d="M77.17,78.27a24.17,24.17,0,0,0,8.25,11.2A15.78,15.78,0,0,0,94,92.85c6.39.28,12.16-5.12,13.48-11.38s-1-13.07-5.36-17.73C94.47,55.62,77.28,48.69,73,49,72.52,52.09,76.17,75.46,77.17,78.27Z"/><path class="cls-4" d="M85.73,90.32l-.61-.44a24.7,24.7,0,0,1-8.43-11.44h0C75.69,75.63,72,52.13,72.52,49l.07-.4.39,0c4.5-.37,21.71,6.57,29.51,14.86A20.81,20.81,0,0,1,108,81.57c-1.45,6.89-7.6,12.07-14,11.8A15.89,15.89,0,0,1,85.73,90.32ZM73.5,49.54c-.15,4.13,3.12,25.65,4.15,28.55h0a23.61,23.61,0,0,0,8.08,11A15.15,15.15,0,0,0,94,92.34c5.82.26,11.63-4.67,13-11a19.77,19.77,0,0,0-5.23-17.27C94.25,56.14,78.08,49.67,73.5,49.54Z"/><path class="cls-7" d="M60.46,75.88S81.85,65.29,95.85,95.16L81,95S74.86,79.83,60.46,75.88Z"/><path class="cls-4" d="M80.6,95.46l-.12-.31c-.06-.15-6.17-15-20.16-18.78L59,76l1.21-.6a23.21,23.21,0,0,1,16.89-.57c7.76,2.71,14.21,9.47,19.19,20.09l.35.74ZM68.92,79.32A39,39,0,0,1,81.29,94.45L95,94.64C90.23,84.71,84.1,78.38,76.8,75.82a22.78,22.78,0,0,0-14.8,0A27.41,27.41,0,0,1,68.92,79.32Z"/><path class="cls-7" d="M84.13,65.08a84.37,84.37,0,0,1,3.33,14.77C88.57,88.18,92,105.44,104,104.44s14.09-12.88,8.68-19.56S97.28,67.3,84.13,65.08Z"/><path class="cls-4" d="M96.79,103.06c-4.9-3.4-8.25-11.22-9.84-23.15a85.69,85.69,0,0,0-3.3-14.67l-.28-.81.85.14c9.87,1.67,19.3,8.21,28.85,20a13.06,13.06,0,0,1,2,13.21c-1.79,4.2-5.7,6.75-11,7.18A10.78,10.78,0,0,1,96.79,103.06ZM84.88,65.74a88,88,0,0,1,3.09,14c1.53,11.49,5.55,25,16,24.15,4.91-.4,8.52-2.73,10.15-6.56a12.2,12.2,0,0,0-1.83-12.17C103.16,74,94.19,67.58,84.88,65.74Z"/><path class="cls-7" d="M91.09,93S80.9,83.53,66.29,86.3A39.35,39.35,0,0,1,78,101.12c3.88,9.15,15.27,21.28,28.15,13.3S91.09,93,91.09,93Z"/><path class="cls-4" d="M87.85,114.2a31.17,31.17,0,0,1-10.28-12.88A39.29,39.29,0,0,0,66,86.71L65,86l1.17-.23c14.11-2.67,24.3,6,25.18,6.79,1.39.67,18.29,9,18.7,16.63.12,2.19-1.1,4.09-3.62,5.65A15.67,15.67,0,0,1,93,116.79,19.46,19.46,0,0,1,87.85,114.2ZM67.53,86.61a39.48,39.48,0,0,1,11,14.31c2.49,5.87,8,12.74,14.8,14.89A14.68,14.68,0,0,0,105.92,114c2.21-1.37,3.23-2.91,3.14-4.72-.38-7.17-18-15.72-18.19-15.8l-.07,0-.06-.05C90.64,93.29,81.09,84.6,67.53,86.61Z"/><path class="cls-4" d="M74.75,89.7a20.91,20.91,0,0,1,3.77,3.13,39.13,39.13,0,0,1,3.12,3.8c1.91,2.65,3.63,5.45,5.68,8a21.19,21.19,0,0,0,7.42,6,19.59,19.59,0,0,0,9.39,1.82v.07a16.88,16.88,0,0,1-9.72-1.2,19.42,19.42,0,0,1-7.58-6.3c-2-2.59-3.67-5.43-5.52-8.11a37,37,0,0,0-3-3.86,21.1,21.1,0,0,0-3.64-3.23Z"/><path class="cls-4" d="M103.63,109.37A14.94,14.94,0,0,1,97.25,107a26.42,26.42,0,0,1-5.18-4.49,65.48,65.48,0,0,1-4.31-5.29c-1.33-1.84-2.68-3.64-4.12-5.41l.06,0a35.58,35.58,0,0,1,4.67,5c1.42,1.77,2.7,3.64,4.16,5.35a26.11,26.11,0,0,0,4.93,4.58,14.68,14.68,0,0,0,6.18,2.6Z"/><path class="cls-7" d="M149.9,71.67a42.67,42.67,0,0,0-12.73,11.71,26.23,26.23,0,0,0-4.82,16.39c.28,3.83,2.05,8,5.7,9.19,2.85.89,8,2,10.5.39A55.23,55.23,0,0,0,166,89.94c3.7-6.9,3.35-16.75,8.94-22.36,2.5-2.51,3.58-4.46-.9-4.13a49.7,49.7,0,0,0-11.76,2.37A56.93,56.93,0,0,0,149.9,71.67Z"/><path class="cls-4" d="M136.06,108.54c-2.75-1.91-4-5.69-4.22-8.73a26.67,26.67,0,0,1,4.91-16.72,42.94,42.94,0,0,1,12.88-11.85h0a56.54,56.54,0,0,1,12.45-5.9A49.93,49.93,0,0,1,174,62.94c2-.15,3.14.15,3.5.94s-.22,2.08-2.2,4.06c-3.22,3.23-4.45,8.06-5.63,12.74a42.35,42.35,0,0,1-3.22,9.5,56.09,56.09,0,0,1-17.58,19.6c-2.88,1.89-8.6.39-10.93-.34A6.43,6.43,0,0,1,136.06,108.54ZM150.17,72.1A42.14,42.14,0,0,0,137.6,83.67a25.6,25.6,0,0,0-4.74,16.07c.24,3.33,1.79,7.61,5.35,8.73s8,1.8,10.06.45A54.85,54.85,0,0,0,165.5,89.7a41.11,41.11,0,0,0,3.13-9.27c1.22-4.81,2.49-9.78,5.91-13.21,2.11-2.13,2.06-2.77,2-2.92s-.29-.51-2.5-.34a48.44,48.44,0,0,0-11.63,2.35,56.32,56.32,0,0,0-12.23,5.79Z"/><path class="cls-4" d="M131.49,108.58a57.47,57.47,0,0,1,3.56-13.44A52.26,52.26,0,0,1,141.91,83c.68-1,1.47-1.81,2.2-2.72s1.56-1.74,2.42-2.54a39.06,39.06,0,0,1,5.4-4.45,37.46,37.46,0,0,1,6.14-3.38,34,34,0,0,1,6.66-2.07l0,.08c-1.1.36-2.22.65-3.28,1.11s-2.14.88-3.18,1.36a40.22,40.22,0,0,0-5.92,3.53,45.33,45.33,0,0,0-5.31,4.37c-.86.77-1.63,1.63-2.43,2.45s-1.54,1.72-2.23,2.64a51.91,51.91,0,0,0-7,11.9,57.41,57.41,0,0,0-3.84,13.3Z"/><path class="cls-4" d="M131.31,111.8a84.67,84.67,0,0,1,11.76-20.7A74.84,74.84,0,0,1,151,82.16a67.41,67.41,0,0,1,9.35-7.42l0,.06c-3.08,2.52-6.07,5.11-8.87,7.91a107.06,107.06,0,0,0-8,8.77,87.55,87.55,0,0,0-12.17,20.35Z"/><path class="cls-4" d="M133.33,110.05l13.79-15.51c2.3-2.58,4.57-5.19,6.94-7.71s4.75-5,7.25-7.43l.05,0c-2.17,2.7-4.46,5.29-6.74,7.9s-4.68,5.08-7.05,7.61l-14.19,15.15Z"/><path class="cls-4" d="M136.76,111.7a79.89,79.89,0,0,0,10.64-8.11,66.18,66.18,0,0,0,9-9.87,64.93,64.93,0,0,0,6.7-11.52c1.9-4,3.64-8.24,6.46-11.76l.06,0c-2.44,3.76-4,7.93-5.82,12a54.12,54.12,0,0,1-6.91,11.56,66.77,66.77,0,0,1-9.22,9.79,78.92,78.92,0,0,1-10.86,7.89Z"/><path class="cls-7" d="M173.43,97.67s-38.11-5.75-48.32,15.42c0,0-1.28,4.45,9.33,6.47a29.08,29.08,0,0,0,28.17-9.82C169.77,101.36,173.43,97.67,173.43,97.67Z"/><path class="cls-4" d="M127,117.42a6.52,6.52,0,0,1-1.86-1.89,3.36,3.36,0,0,1-.53-2.58c10.29-21.35,48.51-15.84,48.89-15.78l1,.15-.71.71s-3.74,3.78-10.8,12a29.53,29.53,0,0,1-28.66,10A19.76,19.76,0,0,1,127,117.42Zm-1.44-4.11a2.64,2.64,0,0,0,.48,1.72c.79,1.25,2.9,3,8.48,4a28.49,28.49,0,0,0,27.69-9.65c5.31-6.23,8.74-9.9,10.14-11.36-6.06-.7-37.78-3.42-46.79,15.26Z"/><path class="cls-4" d="M125.11,115.57a10.8,10.8,0,0,1,2.89-4.09,23,23,0,0,1,4.11-2.91,46.14,46.14,0,0,1,9.22-3.9,52.73,52.73,0,0,1,9.77-2,51.9,51.9,0,0,1,10-.13v.07a52.12,52.12,0,0,0-9.91.44,51.07,51.07,0,0,0-9.63,2.26,59.64,59.64,0,0,0-9,4c-2.88,1.53-5.71,3.41-7.3,6.36Z"/><path class="cls-4" d="M126.42,116.06a69.75,69.75,0,0,1,10-4.53,77.7,77.7,0,0,1,10.6-2.92c3.58-.75,7.19-1.29,10.7-2.26a23.3,23.3,0,0,0,9.66-4.85l.05.06a23.47,23.47,0,0,1-9.6,5.16c-3.52,1-7.14,1.67-10.68,2.49s-7,1.9-10.48,3.05-6.84,2.47-10.22,3.87Z"/><path class="cls-4" d="M127.68,117.36c2.48-.08,4.94-.11,7.4-.29s4.9-.34,7.32-.75a34.38,34.38,0,0,0,13.67-5.26l0,.06a33.41,33.41,0,0,1-13.6,5.81,42.75,42.75,0,0,1-7.4.9,46.09,46.09,0,0,1-7.43-.39Z"/><path class="cls-7" d="M125.2,68.43S159,89.9,125,114.57c0,0-12.65,7.91-16.7-10.92s5-25.71,10.32-28C118.62,75.66,121.05,65.23,125.2,68.43Z"/><path class="cls-4" d="M113.93,115.13c-2.87-2-4.93-5.8-6.13-11.37-4.2-19.55,5.66-26.38,10.39-28.47.34-1.38,1.87-6.86,4.59-7.83a2.77,2.77,0,0,1,2.71.55c.85.54,14.77,9.65,15.19,23,.25,8.35-4.92,16.43-15.38,24-.23.15-5,3.06-9.74,1A9,9,0,0,1,113.93,115.13Zm10.81-46.4a1.72,1.72,0,0,0-1.61-.31c-2.06.73-3.59,5.56-4,7.35l-.06.26-.24.1c-5.44,2.32-14,9-10,27.42,1.34,6.21,3.74,10.09,7.15,11.54,4.27,1.81,8.73-.93,8.78-1C134.87,106.78,139.9,99,139.65,91c-.4-12.9-14.58-22-14.73-22.14h0l0,0Z"/><path class="cls-7" d="M102.15,76.75S70.48,99.14,113.3,120.17c0,0,22.1-9.49,16.71-24.09S102.15,76.75,102.15,76.75Z"/><path class="cls-4" d="M103.24,114.94c-8-5.56-12.31-11.6-12.83-18-.93-11.69,10.94-20.22,11.45-20.58l.18-.13.22,0c.93.19,22.81,5,28.24,19.65,5.49,14.89-16.77,24.64-17,24.74l-.22.09-.21-.1A75.59,75.59,0,0,1,103.24,114.94Zm-1-37.64c-1.49,1.12-11.66,9.19-10.83,19.53.66,8.27,8,15.93,21.87,22.77,2.23-1,21.1-10.12,16.22-23.34C124.59,82.86,104.61,77.84,102.27,77.3Z"/><path class="cls-4" d="M101.08,80.55a22.26,22.26,0,0,0-3.91,10.5,22,22,0,0,0,1.62,11,35.3,35.3,0,0,0,6.15,9.38,112.36,112.36,0,0,0,8,8l0,.06a64,64,0,0,1-8.54-7.58,31.57,31.57,0,0,1-6.14-9.66A22.45,22.45,0,0,1,101,80.51Z"/><path class="cls-4" d="M106.59,81a60.43,60.43,0,0,1,9.75,6.51,19.93,19.93,0,0,1,6.38,9.79,18.52,18.52,0,0,1-.49,11.72,35.65,35.65,0,0,1-6.49,9.8l-.06,0c2.19-3.22,4.53-6.39,5.84-10a19.19,19.19,0,0,0,.61-11.3,19.49,19.49,0,0,0-6-9.65A59.56,59.56,0,0,0,106.55,81Z"/><path class="cls-4" d="M103.94,81.91q3,9.36,5.45,18.87c.84,3.17,1.68,6.34,2.35,9.55s1.27,6.42,1.7,9.67l-.07,0c-.86-3.17-1.6-6.35-2.38-9.53l-2.19-9.56q-2.28-9.54-4.93-19Z"/><path class="cls-4" d="M109.38,86.49a56.22,56.22,0,0,1,7.14,15.32,30.4,30.4,0,0,1,1.2,8.43,23.18,23.18,0,0,1-1.58,8.34l-.07,0a32,32,0,0,0,.88-8.31,39.33,39.33,0,0,0-1-8.29,59.08,59.08,0,0,0-6.61-15.43Z"/></g></g></svg>